<?xml version="1.0" standalone="no"?>
<!DOCTYPE svg PUBLIC "-//W3C//DTD SVG 1.1//EN" "http://www.w3.org/Graphics/SVG/1.1/DTD/svg11.dtd" >
<svg xmlns="http://www.w3.org/2000/svg" xmlns:xlink="http://www.w3.org/1999/xlink" version="1.1">
<metadata>
Created by FontForge 20200427 at Mon Nov  2 17:38:21 2015
 By www
Copyright 2015 Indian Type Foundry. All rights reserved.
</metadata>
<defs>
<font id="ToucheW03-Semibold" horiz-adv-x="685" >
  <font-face 
    font-family="ToucheW03-Semibold"
    font-weight="600"
    font-stretch="normal"
    units-per-em="1000"
    panose-1="2 0 0 0 0 0 0 0 0 0"
    ascent="800"
    descent="-200"
    x-height="557"
    cap-height="702"
    bbox="-175 -236 1608 973"
    underline-thickness="50"
    underline-position="-125"
    unicode-range="U+0020-FB02"
  />
<missing-glyph horiz-adv-x="759" 
d="M84 0v702h591v-702h-591zM535 123v456h-311v-456h311z" />
    <glyph glyph-name=".notdef" horiz-adv-x="759" 
d="M84 0v702h591v-702h-591zM535 123v456h-311v-456h311z" />
    <glyph glyph-name=".null" horiz-adv-x="0" 
 />
    <glyph glyph-name="nonmarkingreturn" horiz-adv-x="333" 
 />
    <glyph glyph-name="space" unicode=" " horiz-adv-x="201" 
 />
    <glyph glyph-name="exclam" unicode="!" horiz-adv-x="327" 
d="M93 224v478h140v-478h-140zM163 -10q-33 0 -56.5 24t-23.5 57t23.5 57t56.5 24q34 0 57.5 -24t23.5 -57t-23.5 -57t-57.5 -24z" />
    <glyph glyph-name="quotedbl" unicode="&#x22;" horiz-adv-x="427" 
d="M50 702h141l-23 -250h-95zM236 702h141l-23 -250h-95z" />
    <glyph glyph-name="numbersign" unicode="#" horiz-adv-x="807" 
d="M383 0l43 181h-138l-43 -181h-126l43 181h-129l32 109h123l36 150h-117l31 109h112l36 153h126l-36 -153h138l36 153h126l-36 -153h134l-31 -109h-129l-36 -150h123l-32 -109h-117l-43 -181h-126zM452 290l36 150h-138l-36 -150h138z" />
    <glyph glyph-name="dollar" unicode="$" horiz-adv-x="628" 
d="M264 -97v91q-89 12 -146 68t-67 146h150q5 -39 24.5 -64t46 -33t50.5 -8q49 0 78.5 23.5t29.5 61.5q0 13 -5.5 29.5t-23.5 31t-41 24t-96 31.5q-66 21 -109 46t-67 64.5t-24 95.5q0 82 54.5 134.5t145.5 63.5v80h102v-81q86 -12 139.5 -64t60.5 -137h-153
q-4 30 -21.5 52.5t-42.5 31t-48 8.5q-41 0 -65.5 -20t-24.5 -52q0 -22 12 -38.5t30.5 -27t36 -17t41 -14t30.5 -10.5q70 -23 115.5 -48.5t73 -67.5t27.5 -103q0 -83 -57.5 -139t-153.5 -68v-90h-102z" />
    <glyph glyph-name="percent" unicode="%" horiz-adv-x="773" 
d="M33 551q0 46 18 81t54 57t87 22t86.5 -22t53.5 -57t18 -81t-18 -81.5t-53.5 -57.5t-86.5 -22q-70 0 -114.5 43.5t-44.5 117.5zM191 624q-25 0 -40.5 -19.5t-15.5 -53.5q0 -35 15 -54t41 -19t41.5 19t15.5 54q0 34 -15.5 53.5t-41.5 19.5zM130 0l385 702h126l-385 -702
h-126zM423 151q0 37 15 74t53.5 61.5t89.5 24.5t87 -22t54 -57t18 -81q0 -74 -44.5 -117.5t-114.5 -43.5q-69 0 -113.5 43.5t-44.5 117.5zM581 224q-25 0 -40.5 -19.5t-15.5 -53.5q0 -35 15 -54.5t41 -19.5t41 19.5t15 54.5q0 34 -15.5 53.5t-40.5 19.5z" />
    <glyph glyph-name="ampersand" unicode="&#x26;" horiz-adv-x="795" 
d="M288 539q0 -16 8.5 -35t39.5 -52q71 27 71 86q0 27 -16 44t-43 17q-28 0 -44 -17t-16 -43zM323 103q73 0 128 49l-132 131l-62 60q-34 -17 -53 -46t-19 -67q0 -25 11.5 -55t44 -51t82.5 -21zM605 0l-68 67q-90 -77 -218 -77q-58 0 -109.5 14.5t-89.5 43t-59 70.5t-21 94
q0 44 16 83.5t52 69.5t84 48q-24 30 -36 59t-12 63q0 39 15 71.5t43 56t66 36t83 12.5q58 0 101.5 -20.5t70 -58t26.5 -85.5q0 -56 -38.5 -99t-103.5 -65l13 -13l110 -110l23 54l24 50h149l-28 -56q-33 -79 -74 -142l166 -166h-185z" />
    <glyph glyph-name="quotesingle" unicode="'" horiz-adv-x="241" 
d="M50 702h141l-23 -250h-95z" />
    <glyph glyph-name="parenleft" unicode="(" horiz-adv-x="376" 
d="M227 763h136q-85 -91 -129 -200t-44 -229t44 -229t129 -200h-136q-87 92 -132 201t-45 228t45 228t132 201z" />
    <glyph glyph-name="parenright" unicode=")" horiz-adv-x="376" 
d="M150 -95h-137q85 91 129 200t44 229t-44 229t-129 200h137q87 -92 132 -201t45 -228t-45 -228t-132 -201z" />
    <glyph glyph-name="asterisk" unicode="*" horiz-adv-x="466" 
d="M286 740l-24 -139l110 88l50 -91l-131 -47l131 -46l-53 -94l-107 90l23 -139h-104l22 139l-108 -91l-54 95l130 48l-130 45l51 92l111 -89l-23 139h106z" />
    <glyph glyph-name="plus" unicode="+" horiz-adv-x="628" 
d="M255 608h117v-193h192v-116h-192v-191h-117v191h-191v116h191v193z" />
    <glyph glyph-name="comma" unicode="," horiz-adv-x="247" 
d="M61 150h142l-90 -257h-93z" />
    <glyph glyph-name="hyphen" unicode="-" horiz-adv-x="418" 
d="M40 205v116h338v-116h-338z" />
    <glyph glyph-name="period" unicode="." horiz-adv-x="247" 
d="M123 -10q-33 0 -56.5 24t-23.5 57t23.5 57t56.5 24q34 0 57.5 -24t23.5 -57t-23.5 -57t-57.5 -24z" />
    <glyph glyph-name="slash" unicode="/" horiz-adv-x="381" 
d="M148 -95h-121l205 858h122z" />
    <glyph glyph-name="zero" unicode="0" horiz-adv-x="639" 
d="M319 711q66 0 117.5 -26t85.5 -73.5t51.5 -114.5t17.5 -147q0 -38 -5.5 -85t-21.5 -93.5t-46 -88t-81.5 -67.5t-117.5 -26q-49 0 -90.5 15t-73.5 42.5t-54.5 67t-37.5 97.5t-15 138t17.5 147t51.5 114.5t85.5 73.5t116.5 26zM319 580q-41 0 -70 -26t-45 -77t-16 -127
t16 -126.5t45 -76.5t70 -26q25 0 49 11.5t42.5 39t29.5 71.5t11 107q0 76 -16.5 127t-45 77t-70.5 26z" />
    <glyph glyph-name="one" unicode="1" horiz-adv-x="370" 
d="M140 0v573h-108v129h253v-702h-145z" />
    <glyph glyph-name="two" unicode="2" horiz-adv-x="565" 
d="M41 0v101l202 187q69 62 99.5 112.5t30.5 95.5q0 44 -24.5 69t-67.5 25q-42 0 -70 -32t-34 -87h-137q8 111 74 175.5t173 64.5q105 0 165 -59t60 -154q0 -63 -33 -124t-114 -135l-133 -121h305v-118h-496z" />
    <glyph glyph-name="three" unicode="3" horiz-adv-x="582" 
d="M300 107q47 0 74 26t27 73q0 48 -35 74t-100 26h-50v109h49q58 0 88 24.5t30 67.5q0 37 -24.5 60t-65.5 23q-45 0 -71.5 -29t-31.5 -80h-137q7 106 72 168t174 62q67 0 121 -24.5t80 -71t26 -98.5q0 -47 -23 -86.5t-68 -63.5q53 -23 81 -66t28 -100q0 -96 -66 -153.5
t-182 -57.5q-113 0 -180.5 62t-73.5 179h135q5 -61 36.5 -92.5t86.5 -31.5z" />
    <glyph glyph-name="four" unicode="4" horiz-adv-x="630" 
d="M352 0v137h-324v97l314 468h150v-443h120v-122h-120v-137h-140zM364 259v285l-184 -285h184z" />
    <glyph glyph-name="five" unicode="5" horiz-adv-x="593" 
d="M302 -10q-107 0 -177 57t-80 157h139q10 -47 41 -72t77 -25q35 0 61 14t42.5 43.5t16.5 70.5q0 26 -10.5 55t-39 47t-67.5 18q-41 0 -69 -18t-41 -50h-133v415h444v-123h-317v-157q54 51 147 51q52 0 94.5 -16.5t72 -47.5t44.5 -73.5t15 -92.5q0 -58 -19 -105.5
t-54 -80.5t-83 -50t-104 -17z" />
    <glyph glyph-name="six" unicode="6" horiz-adv-x="594" 
d="M297 356q-52 0 -86.5 -33.5t-34.5 -89.5q0 -58 35 -92.5t89 -34.5q24 0 53 11t49.5 41t20.5 71q0 30 -12.5 59t-43 48.5t-70.5 19.5zM298 -10q-54 0 -101.5 18t-82.5 51t-54.5 78t-19.5 97q0 67 31.5 137.5t110.5 169.5l128 160h151l-195 -245q29 8 58 8q36 0 76 -11.5
t79.5 -43.5t59.5 -79.5t20 -95.5q0 -52 -19.5 -97t-54.5 -78t-83.5 -51t-103.5 -18z" />
    <glyph glyph-name="seven" unicode="7" horiz-adv-x="531" 
d="M28 702h469v-104l-264 -598h-149l274 586h-330v116z" />
    <glyph glyph-name="eight" unicode="8" horiz-adv-x="606" 
d="M303 -10q-55 0 -103.5 14.5t-84.5 42t-55.5 67.5t-19.5 87q0 57 30 100t85 68q-97 50 -97 155q0 37 15.5 70.5t46.5 60t77.5 41.5t105.5 15q44 0 88 -10t78.5 -34t56 -60.5t21.5 -82.5q0 -51 -26 -91.5t-71 -63.5q56 -25 86 -68t30 -100q0 -47 -19.5 -87t-55.5 -67.5
t-84.5 -42t-103.5 -14.5zM303 595q-47 0 -76.5 -23.5t-29.5 -63.5q0 -41 30.5 -66.5t75.5 -25.5q21 0 45.5 8.5t42.5 32t18 52.5q0 40 -29 63t-77 23zM302 316q-55 0 -90 -27.5t-35 -77.5q0 -21 11 -46t41.5 -42t72.5 -17q27 0 56 10t47.5 36t18.5 60q0 49 -32.5 76.5
t-89.5 27.5z" />
    <glyph glyph-name="nine" unicode="9" horiz-adv-x="594" 
d="M297 345q24 0 52.5 11t48.5 41t20 71q0 42 -20.5 73t-49.5 42t-54 11q-24 0 -53 -11t-49 -41t-20 -71q0 -30 12.5 -58.5t43 -48t69.5 -19.5zM285 0h-152l195 244q-29 -8 -58 -8q-49 0 -92.5 17.5t-75.5 49t-49.5 74t-17.5 90.5q0 52 19.5 97t54.5 78t83.5 51t103.5 18
q40 0 84 -12t87.5 -45.5t65.5 -84t22 -102.5q0 -67 -32 -137.5t-111 -170.5z" />
    <glyph glyph-name="colon" unicode=":" horiz-adv-x="247" 
d="M123 -10q-33 0 -56.5 24t-23.5 57t23.5 57t56.5 24q34 0 57.5 -24t23.5 -57t-23.5 -57t-57.5 -24zM123 378q-33 0 -56.5 24t-23.5 57t23.5 57t56.5 24q34 0 57.5 -24t23.5 -57t-23.5 -57t-57.5 -24z" />
    <glyph glyph-name="semicolon" unicode=";" horiz-adv-x="247" 
d="M123 378q-33 0 -56.5 24t-23.5 57t23.5 57t56.5 24q34 0 57.5 -24t23.5 -57t-23.5 -57t-57.5 -24zM61 150h142l-90 -257h-93z" />
    <glyph glyph-name="less" unicode="&#x3c;" horiz-adv-x="628" 
d="M564 68l-500 210v116l500 211v-124l-354 -145l354 -144v-124z" />
    <glyph glyph-name="equal" unicode="=" horiz-adv-x="628" 
d="M64 234v219h500v-219h-500z" />
    <glyph glyph-name="greater" unicode="&#x3e;" horiz-adv-x="628" 
d="M64 68v124l354 144l-354 145v124l500 -211v-116z" />
    <glyph glyph-name="question" unicode="?" horiz-adv-x="538" 
d="M257 -10q-33 0 -57 24t-24 57t24 57t57 24t57 -24t24 -57t-24 -57t-57 -24zM325 224h-133v167h26q69 0 108 28.5t39 82.5q0 39 -26.5 63.5t-68.5 24.5q-44 0 -70 -25t-32 -69h-135q8 97 72 156t166 59q109 0 171.5 -55.5t62.5 -144.5q0 -40 -11 -69t-29 -52.5t-53 -45.5
t-87 -35v-85z" />
    <glyph glyph-name="at" unicode="@" horiz-adv-x="968" 
d="M587 124q-21 -37 -60 -60.5t-82 -23.5q-45 0 -82.5 16.5t-64 47t-40.5 73t-14 92.5q0 102 56 167t145 65q84 0 129 -71v61h112v-272q0 -46 14 -68t49 -22q36 0 55.5 41t19.5 119q0 68 -24 126.5t-69 100.5t-108 65t-137 23q-73 0 -136.5 -25t-109 -71t-70.5 -109.5
t-25 -137.5q0 -72 26 -134.5t72 -107.5t109 -69t133 -24q39 0 81 7.5t75 24.5l30 -89q-43 -18 -93 -26.5t-98 -8.5q-117 0 -217.5 50.5t-161 149.5t-60.5 226q0 44 11.5 100.5t42.5 112.5t76.5 99.5t103 72.5t113.5 39.5t99 10.5q68 0 142.5 -20t140.5 -69t101.5 -110
t46.5 -114t11 -95q0 -57 -15 -104t-42.5 -78.5t-64 -48t-77.5 -16.5q-114 0 -143 84zM363 269q0 -58 28 -94t77 -36q50 0 79 36.5t29 93.5q0 58 -29 95.5t-79 37.5q-49 0 -77 -37t-28 -96z" />
    <glyph glyph-name="A" unicode="A" horiz-adv-x="691" 
d="M262 703h168l249 -703h-147l-43 129h-287l-43 -129h-147zM447 252l-101 302l-102 -302h203z" />
    <glyph glyph-name="B" unicode="B" horiz-adv-x="637" 
d="M430 498q0 40 -27 60.5t-74 20.5h-105v-161h105q45 0 73 21.5t28 58.5zM594 197q0 -93 -61.5 -145t-172.5 -52h-276v702h260q107 0 168.5 -53.5t61.5 -138.5q0 -51 -26.5 -89t-74.5 -57q26 -8 54.5 -29t47.5 -58.5t19 -79.5zM450 210q0 42 -28.5 63.5t-76.5 21.5h-121
v-172h121q35 0 60.5 12t35 33t9.5 42z" />
    <glyph glyph-name="C" unicode="C" horiz-adv-x="766" 
d="M397 -10q-34 0 -78.5 8.5t-90.5 32t-89 66t-71 109.5t-28 144q0 76 27 143t75.5 116t113.5 76t138 27q60 0 116 -17.5t102 -52t77.5 -85.5t44.5 -114h-156q-14 49 -43.5 80t-65 45.5t-76.5 14.5q-94 0 -152 -65t-58 -168q0 -51 15.5 -94t44 -73.5t67 -47t83.5 -16.5
q32 0 70 12t70.5 46t47.5 82h155q-10 -47 -34.5 -95t-61.5 -82t-75 -53t-81 -29t-87 -10z" />
    <glyph glyph-name="D" unicode="D" horiz-adv-x="735" 
d="M315 702q83 0 153.5 -25t121.5 -71t78.5 -111.5t27.5 -142.5q0 -78 -27.5 -143.5t-78.5 -112t-121.5 -71.5t-153.5 -25h-231v702h231zM224 123h95q111 0 172 61.5t61 167.5q0 105 -61 166t-172 61h-95v-456z" />
    <glyph glyph-name="E" unicode="E" horiz-adv-x="562" 
d="M509 702v-123h-285v-159h255v-123h-255v-174h285v-123h-425v702h425z" />
    <glyph glyph-name="F" unicode="F" horiz-adv-x="549" 
d="M84 0v702h429v-123h-289v-176h247v-123h-247v-280h-140z" />
    <glyph glyph-name="G" unicode="G" horiz-adv-x="776" 
d="M40 351q0 77 27.5 144t77 115t116 74.5t139.5 26.5q55 0 108 -15t98 -46t77 -78t46 -108h-155q-22 59 -69 90.5t-109 31.5q-47 0 -86.5 -16.5t-67.5 -47.5t-43.5 -75t-15.5 -96q0 -38 10.5 -79t39.5 -80t73.5 -58t90.5 -19q27 0 58 7.5t60 27.5t51 55t27 86h-263v110h402
q6 -24 6 -61q0 -76 -25.5 -141t-72 -111.5t-109 -72t-132.5 -25.5q-73 0 -139 26.5t-115.5 75t-77 115.5t-27.5 144z" />
    <glyph glyph-name="H" unicode="H" horiz-adv-x="759" 
d="M535 0v296h-311v-296h-140v702h140v-283h311v283h140v-702h-140z" />
    <glyph glyph-name="I" unicode="I" horiz-adv-x="308" 
d="M84 0v702h140v-702h-140z" />
    <glyph glyph-name="J" unicode="J" horiz-adv-x="544" 
d="M327 207v372h-186v123h326v-495q0 -100 -61 -157.5t-156 -57.5q-34 0 -70.5 9.5t-72.5 37t-55 73t-20 95.5h141q4 -45 24.5 -67.5t52.5 -22.5q36 0 56.5 24t20.5 66z" />
    <glyph glyph-name="K" unicode="K" horiz-adv-x="668" 
d="M84 0v702h140v-702h-140zM233 351l245 351h163l-247 -341l264 -361h-176z" />
    <glyph glyph-name="L" unicode="L" horiz-adv-x="528" 
d="M84 702h140v-579h276v-123h-416v702z" />
    <glyph glyph-name="M" unicode="M" horiz-adv-x="929" 
d="M84 0v702h165l219 -426l219 426h158v-702h-141v469l-192 -369h-98l-190 363v-463h-140z" />
    <glyph glyph-name="N" unicode="N" horiz-adv-x="764" 
d="M540 702h140v-702h-131l-325 462v-462h-140v702h140l316 -459v459z" />
    <glyph glyph-name="O" unicode="O" horiz-adv-x="796" 
d="M40 351q0 77 27.5 144t77 115.5t115.5 75t138 26.5q73 0 139 -26.5t115 -75t76.5 -115.5t27.5 -144t-27.5 -144t-77 -115.5t-115 -75t-138.5 -26.5q-72 0 -138 26.5t-115.5 75t-77 115.5t-27.5 144zM612 351q0 105 -59 168.5t-155 63.5q-47 0 -86.5 -16.5t-68.5 -47
t-44.5 -73.5t-15.5 -95q0 -104 60 -167.5t155 -63.5t154.5 63.5t59.5 167.5z" />
    <glyph glyph-name="P" unicode="P" horiz-adv-x="612" 
d="M224 380h110q51 0 79.5 28t28.5 74q0 47 -28.5 75.5t-79.5 28.5h-110v-206zM586 482q0 -60 -28.5 -109.5t-84 -79t-139.5 -29.5h-110v-264h-140v702h250q60 0 108 -17.5t80 -48t48 -70.5t16 -84z" />
    <glyph glyph-name="Q" unicode="Q" horiz-adv-x="796" 
d="M325 332h141l102 -130q44 60 44 149q0 105 -59.5 168.5t-154.5 63.5q-46 0 -86 -16.5t-69 -47t-44.5 -74t-15.5 -94.5q0 -104 60 -167.5t155 -63.5q44 0 81 14zM40 351q0 77 27.5 144t77 115t115.5 74.5t138 26.5q73 0 139 -26.5t115 -74.5t76.5 -115t27.5 -144
q0 -76 -27.5 -143.5t-75.5 -114.5l98 -125h-142l-47 60q-36 -18 -78 -28t-86 -10q-72 0 -138 26.5t-115.5 75t-77 115.5t-27.5 144z" />
    <glyph glyph-name="R" unicode="R" horiz-adv-x="646" 
d="M224 586v-200h114q53 0 82 27.5t29 72.5t-28.5 72.5t-79.5 27.5h-117zM474 0l-156 270h-94v-270h-140v702h257q60 0 108 -17t80 -47.5t48 -70t16 -83.5q0 -67 -35.5 -118t-99.5 -78l178 -288h-162z" />
    <glyph glyph-name="S" unicode="S" horiz-adv-x="611" 
d="M194 518q0 -18 10.5 -34t36.5 -28.5t110 -33t116.5 -36.5t51.5 -31t32 -34t21.5 -45t8.5 -62q0 -49 -19.5 -91t-54.5 -71.5t-84 -45.5t-106 -16q-58 0 -108 16t-88 47.5t-61.5 77.5t-28.5 103h148q8 -62 43.5 -96.5t93.5 -34.5q41 0 70.5 14.5t40.5 36t11 40.5
q0 23 -10.5 43t-38.5 36t-116 38.5t-121.5 40t-52.5 36t-30.5 44t-14 49t-2.5 32.5q0 92 67 145t179 53q55 0 103 -16t84 -47t57.5 -76.5t25.5 -101.5h-148q-5 43 -25 74t-48 42.5t-53 11.5q-46 0 -73 -21.5t-27 -58.5z" />
    <glyph glyph-name="T" unicode="T" horiz-adv-x="587" 
d="M23 579v123h541v-123h-201v-579h-140v579h-200z" />
    <glyph glyph-name="U" unicode="U" horiz-adv-x="718" 
d="M78 265v437h140v-437q0 -72 36.5 -109t103.5 -37q68 0 105 37t37 109v437h140v-437q0 -66 -23 -119t-63 -87t-91.5 -51.5t-106.5 -17.5q-56 0 -106.5 17t-89 51.5t-60.5 87t-22 119.5z" />
    <glyph glyph-name="V" unicode="V" horiz-adv-x="706" 
d="M268 0l-257 702h157l190 -547l188 547h149l-257 -702h-170z" />
    <glyph glyph-name="W" unicode="W" horiz-adv-x="1019" 
d="M1008 702l-202 -702h-158l-138 491l-137 -491h-158l-204 702h151l138 -536l138 536h158l137 -532l124 532h151z" />
    <glyph glyph-name="X" unicode="X" horiz-adv-x="655" 
d="M478 0l-158 244l-155 -244h-154l231 364l-219 338h166l142 -219l139 219h153l-215 -339l236 -363h-166z" />
    <glyph glyph-name="Y" unicode="Y" horiz-adv-x="640" 
d="M250 254l-242 448h156l162 -318l157 318h149l-242 -448v-254h-140v254z" />
    <glyph glyph-name="Z" unicode="Z" horiz-adv-x="583" 
d="M532 702v-108l-312 -471h315v-123h-486v106l312 473h-309v123h480z" />
    <glyph glyph-name="bracketleft" unicode="[" horiz-adv-x="367" 
d="M100 -95v858h247v-115h-114v-627h114v-116h-247z" />
    <glyph glyph-name="backslash" unicode="\" horiz-adv-x="380" 
d="M232 -95l-205 858h122l205 -858h-122z" />
    <glyph glyph-name="bracketright" unicode="]" horiz-adv-x="367" 
d="M267 763v-858h-247v116h114v627h-114v115h247z" />
    <glyph glyph-name="asciicircum" unicode="^" horiz-adv-x="679" 
d="M84 313l197 396h117l191 -396h-128l-121 277l-129 -277h-127z" />
    <glyph glyph-name="underscore" unicode="_" horiz-adv-x="606" 
d="M26 -139v113h560v-113h-560z" />
    <glyph glyph-name="grave" unicode="`" horiz-adv-x="288" 
d="M234 600h-121l-143 173h171z" />
    <glyph glyph-name="a" unicode="a" 
d="M186 278q0 -74 38.5 -121t103.5 -47q32 0 65.5 16t55.5 57.5t22 94.5q0 73 -39 121t-105 48q-65 0 -103 -47t-38 -122zM469 477v80h140v-557h-140v83q-28 -44 -72 -68.5t-98 -24.5q-41 0 -85 14t-87 53t-64.5 99t-21.5 122t18.5 115.5t53.5 92.5t83 60t104 21
q55 0 98.5 -23.5t70.5 -66.5z" />
    <glyph glyph-name="b" unicode="b" 
d="M499 279q0 74 -38.5 121t-103.5 47q-32 0 -65.5 -16t-55.5 -57.5t-22 -94.5q0 -73 39 -121t105 -48q65 0 103 47t38 122zM216 474q20 33 50.5 55t62.5 30t58 8q55 0 103 -21t82.5 -59.5t53 -92t18.5 -114.5q0 -62 -19 -116t-53.5 -92.5t-82.5 -60t-104 -21.5
q-55 0 -98.5 23.5t-70.5 66.5v-80h-140v763h140v-289z" />
    <glyph glyph-name="c" unicode="c" horiz-adv-x="612" 
d="M41 278q0 61 20.5 114.5t58.5 92.5t90 60.5t111 21.5q101 0 171 -57.5t85 -155.5h-151q-10 43 -39 67.5t-71 24.5q-57 0 -93.5 -46t-36.5 -123q0 -76 36.5 -121t93.5 -45q40 0 71 25.5t39 66.5h151q-12 -61 -48 -112t-93 -76t-120 -25q-58 0 -108.5 21.5t-88 60t-58 92
t-20.5 114.5z" />
    <glyph glyph-name="d" unicode="d" 
d="M186 278q0 -74 38.5 -121t103.5 -47q32 0 65.5 16t55.5 57.5t22 94.5q0 73 -39 121t-105 48q-65 0 -103 -47t-38 -122zM469 477v286h140v-763h-140v83q-28 -44 -72 -68.5t-98 -24.5q-41 0 -85 14t-87 53t-64.5 99t-21.5 122t18.5 115.5t53.5 92.5t83 60t104 21
q55 0 98.5 -23.5t70.5 -66.5z" />
    <glyph glyph-name="e" unicode="e" horiz-adv-x="629" 
d="M319 108q31 0 57.5 12t40 32.5t17.5 41.5h148q-21 -95 -91 -149.5t-172 -54.5q-58 0 -109 21.5t-89 60.5t-59 92.5t-21 114.5t21 114.5t59.5 92.5t91 60t111.5 21q56 0 104.5 -19t84.5 -55t56 -87.5t20 -113.5q0 -27 -4 -51h-400q4 -29 19 -60.5t46 -52t69 -20.5z
M319 449q-49 0 -84.5 -31.5t-47.5 -86.5h259q-2 26 -16.5 54t-45 46t-65.5 18z" />
    <glyph glyph-name="f" unicode="f" horiz-adv-x="368" 
d="M85 0v443h-60v114h60v21q0 96 48.5 144t136.5 48q28 0 51.5 -6t36.5 -16v-116q-25 19 -61 19q-72 0 -72 -80v-14h135v-114h-135v-443h-140z" />
    <glyph glyph-name="g" unicode="g" horiz-adv-x="686" 
d="M190 290q0 -70 38 -114t103 -44q24 0 49.5 8t46 27t34.5 50t14 73q0 68 -39 112.5t-104 44.5t-103.5 -44t-38.5 -113zM57 -34h147q9 -28 32 -47t51 -26t51 -7q26 0 51.5 8.5t44 27t29 47t10.5 65.5v70q-27 -45 -71.5 -69t-100.5 -24t-104 20.5t-83 58t-54 89.5t-19 112
q0 28 7.5 71t34 87t62.5 69.5t74.5 37t79.5 11.5q57 0 102 -25t72 -70v85h140v-523q0 -56 -17 -105.5t-51.5 -86.5t-86.5 -57.5t-118 -20.5q-41 0 -85.5 9.5t-89.5 36t-72.5 69t-35.5 87.5z" />
    <glyph glyph-name="h" unicode="h" horiz-adv-x="662" 
d="M76 0v763h140v-288q25 43 68 67.5t96 24.5q43 0 81 -16t66 -46.5t43.5 -75.5t15.5 -100v-329h-140v309q0 64 -31.5 100t-83.5 36q-53 0 -84 -35.5t-31 -100.5v-309h-140z" />
    <glyph glyph-name="i" unicode="i" horiz-adv-x="292" 
d="M76 0v557h140v-557h-140zM146 606q-35 0 -60 25.5t-25 60.5t25 60.5t60 25.5t60.5 -25.5t25.5 -60.5t-25.5 -60.5t-60.5 -25.5z" />
    <glyph glyph-name="j" unicode="j" horiz-adv-x="292" 
d="M146 606q-35 0 -60 25.5t-25 60.5t25 60.5t60 25.5t60.5 -25.5t25.5 -60.5t-25.5 -60.5t-60.5 -25.5zM216 -226h-140v783h140v-783z" />
    <glyph glyph-name="k" unicode="k" horiz-adv-x="597" 
d="M76 0v763h140v-763h-140zM223 283l193 274h162l-198 -265l204 -292h-166z" />
    <glyph glyph-name="l" unicode="l" horiz-adv-x="293" 
d="M76 0v763h141v-763h-141z" />
    <glyph glyph-name="m" unicode="m" horiz-adv-x="1019" 
d="M76 0v557h140v-82q25 43 67 67.5t94 24.5q43 0 80.5 -16.5t61 -44t35.5 -52.5q16 38 48 65.5t68 37.5t65 10q44 0 82.5 -16t66.5 -46.5t43.5 -75.5t15.5 -100v-329h-140v309q0 65 -30 100.5t-82 35.5t-82 -35.5t-30 -100.5v-309h-140v309q0 65 -29.5 100.5t-81.5 35.5
t-82 -35.5t-30 -100.5v-309h-140z" />
    <glyph glyph-name="n" unicode="n" horiz-adv-x="665" 
d="M76 0v557h140v-82q25 43 68.5 67.5t97.5 24.5q43 0 81 -16t66.5 -46.5t44 -75.5t15.5 -100v-329h-140v309q0 32 -10 63.5t-38.5 52t-67.5 20.5q-25 0 -50.5 -10.5t-40.5 -32t-20.5 -45.5t-5.5 -48v-309h-140z" />
    <glyph glyph-name="o" unicode="o" horiz-adv-x="662" 
d="M334 567q60 0 113 -21t92 -60t60.5 -92.5t21.5 -114.5t-22 -114.5t-61.5 -92.5t-93 -60.5t-113.5 -21.5q-61 0 -114.5 21.5t-92.5 60.5t-61 93t-22 115q0 45 15 94t46 86.5t66.5 60t78 34.5t87.5 12zM332 446q-63 0 -104.5 -46t-41.5 -121q0 -76 41 -122t104 -46t104 46
t41 122t-41 121.5t-103 45.5z" />
    <glyph glyph-name="p" unicode="p" 
d="M499 279q0 74 -38.5 121t-103.5 47t-104 -47.5t-39 -120.5t39 -121t105 -48q65 1 103 47.5t38 121.5zM216 80v-306h-140v783h140v-83q20 33 50.5 55t62.5 30t58 8q55 0 102.5 -21t82 -59.5t53.5 -92t19 -115.5t-18.5 -115.5t-53.5 -92.5t-83 -60t-104 -21
q-55 0 -98.5 23.5t-70.5 66.5z" />
    <glyph glyph-name="q" unicode="q" horiz-adv-x="686" 
d="M187 279q0 -75 38 -121.5t103 -47.5q65 0 104.5 48t39.5 121q0 35 -8.5 62.5t-23.5 49t-43 39t-68 17.5q-66 0 -104 -47t-38 -121zM470 80q-20 -32 -50 -53.5t-61.5 -29t-57.5 -7.5q-56 0 -104.5 21t-83 60t-53.5 92.5t-19 115.5t19 115.5t53.5 92t82.5 59.5t103 21
q26 0 58 -8t62.5 -30t50.5 -55v83h140v-783h-140v306z" />
    <glyph glyph-name="r" unicode="r" horiz-adv-x="412" 
d="M216 281v-281h-140v557h140v-85q22 44 55 69.5t72 25.5q32 0 46 -14v-150q-31 18 -64 18q-50 0 -79.5 -33.5t-29.5 -106.5z" />
    <glyph glyph-name="s" unicode="s" horiz-adv-x="544" 
d="M189 406q0 -19 17 -35.5t102 -36t114.5 -35.5t47.5 -34.5t27 -45t9 -54.5q0 -78 -60.5 -126.5t-161.5 -48.5q-48 0 -91.5 13t-77 39t-53.5 64.5t-24 86.5h142q2 -21 13 -43t36 -35.5t58 -13.5q36 0 57.5 14.5t21.5 38.5t-21.5 41t-102 36t-113.5 37t-49 37.5t-23.5 42.5
t-7.5 51q0 51 29 89.5t75.5 58.5t107.5 20q98 0 159.5 -52.5t71.5 -149.5h-137q-6 41 -31.5 66t-62.5 25q-34 0 -53 -14t-19 -36z" />
    <glyph glyph-name="t" unicode="t" horiz-adv-x="385" 
d="M87 158v285h-66v114h66v137h141v-137h125v-114h-125v-268q0 -33 13.5 -48.5t44.5 -15.5q15 0 34.5 5.5t33.5 14.5v-117q-19 -11 -47 -17.5t-56 -6.5q-81 0 -122.5 42.5t-41.5 125.5z" />
    <glyph glyph-name="u" unicode="u" horiz-adv-x="652" 
d="M576 557v-557h-140v83q-25 -44 -67.5 -68.5t-96.5 -24.5q-89 0 -147.5 64t-58.5 174v329h140v-309q0 -32 10 -63.5t38 -52t66 -20.5q53 0 84.5 35.5t31.5 100.5v309h140z" />
    <glyph glyph-name="v" unicode="v" horiz-adv-x="597" 
d="M7 557h148l146 -424l145 424h144l-207 -557h-176z" />
    <glyph glyph-name="w" unicode="w" horiz-adv-x="827" 
d="M506 0l-93 369l-94 -369h-143l-166 557h146l95 -405l101 405h128l104 -407l95 407h138l-168 -557h-143z" />
    <glyph glyph-name="x" unicode="x" horiz-adv-x="585" 
d="M420 0l-130 182l-136 -182h-149l213 283l-195 274h155l123 -172l129 172h149l-206 -273l202 -284h-155z" />
    <glyph glyph-name="y" unicode="y" horiz-adv-x="612" 
d="M139 -226l101 242l-232 541h153l151 -367l153 367h139l-327 -783h-138z" />
    <glyph glyph-name="z" unicode="z" horiz-adv-x="536" 
d="M493 557v-115l-282 -326h285v-116h-454v116l284 327h-281v114h448z" />
    <glyph glyph-name="braceleft" unicode="{" horiz-adv-x="412" 
d="M200 335q97 -28 97 -120v-139q0 -29 12.5 -42t40.5 -13h42v-116h-115q-57 0 -85 28t-28 85v174q0 41 -22 61.5t-75 22.5v116q53 2 75 22.5t22 61.5v174q0 57 28 85t85 28h115v-116h-42q-28 0 -40.5 -13t-12.5 -42v-136q0 -102 -97 -121z" />
    <glyph glyph-name="bar" unicode="|" horiz-adv-x="332" 
d="M226 -95h-119v858h119v-858z" />
    <glyph glyph-name="braceright" unicode="}" horiz-adv-x="412" 
d="M212 333q-97 28 -97 120v139q0 29 -12.5 42t-40.5 13h-42v116h115q57 0 85 -28t28 -85v-174q0 -41 22 -61.5t75 -22.5v-116q-53 -2 -75 -22.5t-22 -61.5v-174q0 -57 -28 -85t-85 -28h-115v116h42q28 0 40.5 13t12.5 42v136q0 102 97 121z" />
    <glyph glyph-name="asciitilde" unicode="~" horiz-adv-x="628" 
d="M421 259q-19 0 -42 5t-54.5 20.5t-37.5 18.5q-42 19 -72 19q-24 0 -38.5 -16.5t-15.5 -47.5h-117q4 89 46.5 140t115.5 51q25 0 48 -6.5t51.5 -20.5t34.5 -17q46 -20 73 -20q23 0 38 17t17 47h116q-3 -89 -47 -139.5t-116 -50.5z" />
    <glyph glyph-name="uni00A0" unicode="&#xa0;" horiz-adv-x="201" 
 />
    <glyph glyph-name="exclamdown" unicode="&#xa1;" horiz-adv-x="327" 
d="M234 305v-477h-140v477h140zM164 540q33 0 56.5 -24t23.5 -57t-23.5 -57t-56.5 -24q-34 0 -57.5 24t-23.5 57t23.5 57t57.5 24z" />
    <glyph glyph-name="cent" unicode="&#xa2;" horiz-adv-x="528" 
d="M37 352q0 33 9 69.5t34 73.5t64 61t79 32v85h102v-82q69 -11 113.5 -55t58.5 -111h-132q-25 61 -89 61q-21 0 -46 -12t-42.5 -45t-17.5 -77q0 -45 17.5 -78t42.5 -45t46 -12q33 0 57 16t33 45h132q-16 -70 -60 -113t-113 -53v-82h-102v85q-82 17 -134 82t-52 155z" />
    <glyph glyph-name="sterling" unicode="&#xa3;" horiz-adv-x="607" 
d="M43 360h77q-17 35 -26.5 67t-9.5 72q0 44 16.5 83.5t48 68.5t77 45t101.5 16q109 0 176 -62.5t68 -174.5h-138q0 36 -14.5 64.5t-38.5 40.5t-51 12q-48 0 -76.5 -30t-28.5 -82q0 -48 32 -120h190v-88h-160l1 -20q0 -77 -75 -140h355v-112h-512v72q53 47 77 87.5t24 83.5
l-2 29h-111v88z" />
    <glyph glyph-name="currency" unicode="&#xa4;" horiz-adv-x="520" 
d="M65 355q0 29 9 57t23 48l-58 58l58 59l64 -64q45 20 99 20t99 -20l64 64l58 -59l-58 -58q14 -20 23 -48t9 -57q0 -28 -8.5 -56t-22.5 -49l57 -57l-58 -58l-62 62q-46 -22 -102 -22t-100 22l-62 -62l-58 58l57 57q-14 20 -22.5 48t-8.5 57zM345 354q0 21 -9 43.5t-30 36
t-46 13.5t-46.5 -13.5t-30.5 -36t-9 -43.5t9 -43t30 -35t46 -13t46.5 13t30.5 35t9 43z" />
    <glyph glyph-name="yen" unicode="&#xa5;" horiz-adv-x="630" 
d="M77 189v88h168v24l-16 29h-152v92h100l-159 280h156l147 -276l143 276h148l-159 -280h100v-92h-152l-16 -29v-24h168v-88h-168v-189h-140v189h-168z" />
    <glyph glyph-name="brokenbar" unicode="&#xa6;" horiz-adv-x="332" 
d="M226 423h-119v340h119v-340zM226 -95h-119v340h119v-340z" />
    <glyph glyph-name="section" unicode="&#xa7;" horiz-adv-x="604" 
d="M345 147l24 -9q56 27 56 71q0 35 -23.5 56t-55.5 34t-78 30l-24 9q-56 -27 -56 -71q0 -29 16 -48.5t45 -33.5t96 -38zM305 -236q-103 0 -168.5 54t-79.5 152h153q5 -43 32.5 -67.5t68.5 -24.5q37 0 58.5 17.5t21.5 45.5q0 22 -16.5 42t-76.5 43t-69 27q-57 23 -94 48.5
t-57.5 61t-20.5 83.5q0 89 83 145q-65 48 -65 133q0 41 16.5 76t46.5 59.5t71 38t89 13.5q109 0 173 -53t76 -152h-153q-5 43 -30 67.5t-66 24.5q-35 0 -55.5 -17.5t-20.5 -46.5q0 -26 21 -45.5t80 -42t61 -23.5q94 -39 133 -83.5t39 -110.5q0 -90 -84 -144q66 -49 66 -134
q0 -30 -11.5 -62.5t-39.5 -60t-74 -46t-108 -18.5z" />
    <glyph glyph-name="dieresis" unicode="&#xa8;" horiz-adv-x="421" 
d="M105 606q-35 0 -60 25.5t-25 60.5t25 60.5t60 25.5t60.5 -25.5t25.5 -60.5t-25.5 -60.5t-60.5 -25.5zM316 606q-35 0 -60 25t-25 61t25 61t60 25t60 -25t25 -61t-25 -61t-60 -25z" />
    <glyph glyph-name="copyright" unicode="&#xa9;" horiz-adv-x="861" 
d="M236 380q0 87 55.5 144.5t140.5 57.5q51 0 91 -20.5t60.5 -53t28.5 -62.5h-111q-18 45 -73 45q-38 0 -61 -30t-23 -82t22.5 -80t61.5 -28q58 0 73 44h111q-19 -65 -65.5 -100.5t-115.5 -35.5q-31 0 -64 10t-62 34t-49 63.5t-20 93.5zM820 382q0 -85 -30 -157.5
t-83.5 -125t-125 -80.5t-150.5 -28q-80 0 -151.5 28t-125 80.5t-83.5 125t-30 157.5q0 84 30 157t83.5 125t125 80t151.5 28t151.5 -28t124.5 -80t83 -125t30 -157zM128 382q0 -34 7 -75.5t27 -82t55.5 -76t92 -57.5t122.5 -22q49 0 100.5 14.5t96 51t67.5 83.5t30 88.5
t7 75.5q0 71 -21.5 129.5t-61.5 99t-96 62t-122 21.5q-67 0 -123 -21.5t-96.5 -62t-62.5 -99t-22 -129.5z" />
    <glyph glyph-name="ordfeminine" unicode="&#xaa;" horiz-adv-x="370" 
d="M123 555q0 -31 16.5 -50.5t44.5 -19.5q29 0 46 19.5t17 50.5q0 32 -17 51.5t-46 19.5t-45 -19t-16 -52zM246 667v38h95v-300h-95v42q-14 -22 -37 -34t-51 -12q-61 0 -99 43t-38 111t40 112t100 44q29 0 52 -13t33 -31z" />
    <glyph glyph-name="guillemotleft" unicode="&#xab;" horiz-adv-x="510" 
d="M168 270l92 -175h-123l-88 175l88 175h123zM375 270l92 -175h-123l-88 175l88 175h123z" />
    <glyph glyph-name="logicalnot" unicode="&#xac;" horiz-adv-x="628" 
d="M64 319v116h500v-293h-116v177h-384z" />
    <glyph glyph-name="uni00AD" unicode="&#xad;" horiz-adv-x="418" 
d="M40 205v116h338v-116h-338z" />
    <glyph glyph-name="registered" unicode="&#xae;" horiz-adv-x="773" 
d="M441 504q0 19 -12.5 31t-36.5 12h-50v-86h50q24 0 36.5 11.5t12.5 31.5zM257 616h135q68 0 104 -32.5t36 -75.5q0 -86 -79 -108l89 -138h-92l-78 130h-30v-130h-85v354zM387 695q-56 0 -104 -18.5t-82.5 -53t-53.5 -83t-19 -106.5q0 -43 12.5 -88t47.5 -88t89 -64
t110 -21t103.5 18.5t82 53t53.5 83t19 106.5q0 28 -6 62.5t-23 68t-47.5 63.5t-78 48.5t-103.5 18.5zM387 773q70 0 133.5 -25t111 -70.5t74 -108.5t26.5 -135t-26.5 -135.5t-74 -109t-111 -70.5t-133.5 -25t-133.5 25t-111 70.5t-74.5 109t-27 135.5t27 135t74.5 108.5
t111 70.5t133.5 25z" />
    <glyph glyph-name="macron" unicode="&#xaf;" horiz-adv-x="397" 
d="M33 631v106h331v-106h-331z" />
    <glyph glyph-name="degree" unicode="&#xb0;" horiz-adv-x="390" 
d="M30 549q0 34 12.5 64t34.5 52t52.5 34t65.5 12q26 0 54 -8t52.5 -28t41.5 -51.5t17 -74.5q0 -71 -47.5 -117.5t-118.5 -46.5q-70 0 -117 46.5t-47 117.5zM265 548q0 35 -20 58t-50 23t-50 -23t-20 -58t19.5 -58t49.5 -23q31 0 51 23t20 58z" />
    <glyph glyph-name="plusminus" unicode="&#xb1;" horiz-adv-x="628" 
d="M255 690h117v-192h192v-116h-192v-192h-117v192h-191v116h191v192zM64 0v116h500v-116h-500z" />
    <glyph glyph-name="uni00B2" unicode="&#xb2;" horiz-adv-x="353" 
d="M40 350v67l111 107q21 20 35 37t14 37q0 13 -8.5 21.5t-21.5 8.5q-32 0 -35 -43h-95q3 59 39 93t95 34q27 0 56.5 -10t48.5 -37t19 -63q0 -26 -12 -49.5t-70 -78.5l-48 -46h140v-78h-268z" />
    <glyph glyph-name="uni00B3" unicode="&#xb3;" horiz-adv-x="353" 
d="M177 424q18 0 27.5 10.5t9.5 26.5q0 19 -13 30t-37 11h-30v59h26q22 0 35 9.5t13 27.5q0 15 -10 22.5t-22 7.5q-16 0 -25.5 -10t-11.5 -23h-95q3 52 39 84.5t97 32.5q44 0 74.5 -16.5t41.5 -41t11 -44.5q0 -22 -11.5 -43.5t-35.5 -31.5q53 -26 53 -83q0 -22 -12.5 -47.5
t-45.5 -42.5t-77 -17q-60 0 -97.5 34.5t-42.5 91.5h93q3 -23 15.5 -35t30.5 -12z" />
    <glyph glyph-name="acute" unicode="&#xb4;" horiz-adv-x="290" 
d="M56 600l94 173h170l-143 -173h-121z" />
    <glyph glyph-name="uni00B5" unicode="&#xb5;" horiz-adv-x="640" 
d="M266 -10q-37 0 -66 17v-233h-140v783h140v-309q0 -32 10 -63.5t38 -52t66 -20.5q53 0 84.5 35.5t31.5 100.5v309h140v-557h-140v83q-25 -43 -68 -68t-96 -25z" />
    <glyph glyph-name="paragraph" unicode="&#xb6;" horiz-adv-x="671" 
d="M269 702h322v-797h-119v689h-65v-689h-119v376h-19q-75 0 -126.5 25t-81 72t-29.5 113q0 42 14 80.5t43 67.5t75 46t105 17z" />
    <glyph glyph-name="periodcentered" unicode="&#xb7;" horiz-adv-x="259" 
d="M211 332q0 -33 -23.5 -57t-57.5 -24q-33 0 -56.5 24t-23.5 57t23.5 57t56.5 24q34 0 57.5 -24t23.5 -57z" />
    <glyph glyph-name="cedilla" unicode="&#xb8;" horiz-adv-x="236" 
d="M120 6v-48q27 0 53.5 -8t41.5 -28.5t15 -47.5q0 -46 -34 -73t-92 -27q-51 0 -91 13v74q40 -11 65 -11q39 0 39 25q0 14 -11.5 20t-36.5 6h-24v105h75z" />
    <glyph glyph-name="uni00B9" unicode="&#xb9;" horiz-adv-x="353" 
d="M134 349v266h-51v92h152v-358h-101z" />
    <glyph glyph-name="ordmasculine" unicode="&#xba;" horiz-adv-x="364" 
d="M182 712q71 0 118 -44.5t47 -111.5q0 -24 -8 -50.5t-28 -49.5t-52.5 -39t-75.5 -16q-26 0 -54 8t-53 26.5t-42 49t-17 71.5q0 67 46.5 111.5t118.5 44.5zM182 626q-28 0 -45.5 -19.5t-17.5 -50.5t17.5 -51t46.5 -20q28 0 44.5 20t16.5 51t-17 50.5t-45 19.5z" />
    <glyph glyph-name="guillemotright" unicode="&#xbb;" horiz-adv-x="510" 
d="M373 95h-123l92 175l-92 175h123l88 -175zM166 95h-123l92 175l-92 175h123l88 -175z" />
    <glyph glyph-name="onequarter" unicode="&#xbc;" horiz-adv-x="851" 
d="M134 349v266h-51v92h152v-358h-101zM187 0l385 702h111l-385 -702h-111zM684 1v61h-160v72l155 225h104v-220h49v-77h-49v-61h-99zM695 139v123l-82 -123h82z" />
    <glyph glyph-name="onehalf" unicode="&#xbd;" horiz-adv-x="851" 
d="M134 349v266h-51v92h152v-358h-101zM168 0l385 702h111l-385 -702h-111zM539 1v67l111 107q21 20 35 37t14 37q0 13 -8.5 21.5t-21.5 8.5q-32 0 -35 -43h-95q3 59 39 93t95 34q27 0 56.5 -10t48.5 -37t19 -63q0 -26 -12 -49.5t-70 -78.5l-48 -46h140v-78h-268z" />
    <glyph glyph-name="threequarters" unicode="&#xbe;" horiz-adv-x="851" 
d="M177 424q18 0 27.5 10.5t9.5 26.5q0 19 -13 30t-37 11h-30v59h26q22 0 35 9.5t13 27.5q0 15 -10 22.5t-22 7.5q-16 0 -25.5 -10t-11.5 -23h-95q3 52 39 84.5t97 32.5q44 0 74.5 -16.5t41.5 -41t11 -44.5q0 -22 -11.5 -43.5t-35.5 -31.5q53 -26 53 -83q0 -22 -12.5 -47.5
t-45.5 -42.5t-77 -17q-60 0 -97.5 34.5t-42.5 91.5h93q3 -23 15.5 -35t30.5 -12zM195 0l385 702h111l-385 -702h-111zM684 1v61h-160v72l155 225h104v-220h49v-77h-49v-61h-99zM695 139v123l-82 -123h82z" />
    <glyph glyph-name="questiondown" unicode="&#xbf;" horiz-adv-x="538" 
d="M284 540q33 0 56.5 -24t23.5 -57t-23.5 -57t-56.5 -24q-34 0 -57.5 24t-23.5 57t23.5 57t57.5 24zM216 305h133v-166h-27q-69 0 -107.5 -28.5t-38.5 -82.5q0 -39 26.5 -63.5t68.5 -24.5q43 0 69.5 25t32.5 69h135q-8 -97 -72.5 -156t-165.5 -59q-54 0 -98.5 14.5
t-74.5 41.5t-45.5 64t-15.5 80q0 40 11 69t29 52.5t53 45.5t87 35v84z" />
    <glyph glyph-name="Agrave" unicode="&#xc0;" horiz-adv-x="691" 
d="M262 703h168l249 -703h-147l-43 129h-287l-43 -129h-147zM435 745h-121l-143 173h171zM447 252l-101 302l-102 -302h203z" />
    <glyph glyph-name="Aacute" unicode="&#xc1;" horiz-adv-x="691" 
d="M262 703h168l249 -703h-147l-43 129h-287l-43 -129h-147zM256 745l94 173h170l-143 -173h-121zM447 252l-101 302l-102 -302h203z" />
    <glyph glyph-name="Acircumflex" unicode="&#xc2;" horiz-adv-x="691" 
d="M262 703h168l249 -703h-147l-43 129h-287l-43 -129h-147zM413 745l-67 86l-67 -86h-121l102 173h172l102 -173h-121zM447 252l-101 302l-102 -302h203z" />
    <glyph glyph-name="Atilde" unicode="&#xc3;" horiz-adv-x="691" 
d="M262 703h168l249 -703h-147l-43 129h-287l-43 -129h-147zM414 861q15 0 25.5 13t11.5 38h89q-1 -70 -34.5 -112.5t-85.5 -42.5q-17 0 -34.5 5t-47.5 22.5t-42 20.5t-20 3q-15 0 -25 -13t-12 -38h-89q2 71 34.5 113t86.5 42q11 0 24 -2.5t24 -7.5t42.5 -23t52.5 -18z
M447 252l-101 302l-102 -302h203z" />
    <glyph glyph-name="Adieresis" unicode="&#xc4;" horiz-adv-x="691" 
d="M262 703h168l249 -703h-147l-43 129h-287l-43 -129h-147zM240 751q-35 0 -60 25.5t-25 60.5t25 60.5t60 25.5t60.5 -25.5t25.5 -60.5t-25.5 -60.5t-60.5 -25.5zM451 751q-35 0 -60 25t-25 61t25 61t60 25t60 -25t25 -61t-25 -61t-60 -25zM447 252l-101 302l-102 -302h203
z" />
    <glyph glyph-name="Aring" unicode="&#xc5;" horiz-adv-x="691" 
d="M262 703h168l249 -703h-147l-43 129h-287l-43 -129h-147zM231 843q0 23 11 49t39.5 44t64.5 18q50 0 82 -31t32 -80q0 -23 -11 -49t-39 -44t-64 -18q-23 0 -50 10.5t-46 38t-19 62.5zM385 844q0 17 -11 29t-28 12t-28.5 -12t-11.5 -29q0 -18 11 -30t29 -12q17 0 28 12
t11 30zM447 252l-101 302l-102 -302h203z" />
    <glyph glyph-name="AE" unicode="&#xc6;" horiz-adv-x="953" 
d="M390 702h510v-123h-285v-159h255v-123h-255v-174h285v-123h-425v195h-214l-104 -195h-148zM475 318v277l-148 -277h148z" />
    <glyph glyph-name="Ccedilla" unicode="&#xc7;" horiz-adv-x="766" 
d="M408 -226q-52 0 -91 13v74q37 -11 65 -11q38 0 38 25q0 10 -8 18t-39 8h-25v92q-64 8 -120.5 37.5t-98.5 76.5t-65.5 109.5t-23.5 133.5q0 76 27 143t75.5 116t113.5 76t138 27q60 0 116 -17.5t102 -52t77.5 -85.5t44.5 -114h-156q-14 49 -43.5 80t-65 45.5t-76.5 14.5
q-94 0 -152 -65t-58 -168q0 -51 15.5 -94t44 -73.5t67 -47t83.5 -16.5q32 0 70 12t70.5 46t47.5 82h155q-13 -60 -42 -109t-71 -83t-93 -53t-106 -23v-33q54 0 82 -23.5t28 -60.5q0 -46 -34 -73t-92 -27z" />
    <glyph glyph-name="Egrave" unicode="&#xc8;" horiz-adv-x="562" 
d="M509 702v-123h-285v-159h255v-123h-255v-174h285v-123h-425v702h425zM387 745h-121l-143 173h171z" />
    <glyph glyph-name="Eacute" unicode="&#xc9;" horiz-adv-x="562" 
d="M509 702v-123h-285v-159h255v-123h-255v-174h285v-123h-425v702h425zM208 745l94 173h170l-143 -173h-121z" />
    <glyph glyph-name="Ecircumflex" unicode="&#xca;" horiz-adv-x="562" 
d="M509 702v-123h-285v-159h255v-123h-255v-174h285v-123h-425v702h425zM365 745l-67 86l-67 -86h-121l102 173h172l102 -173h-121z" />
    <glyph glyph-name="Edieresis" unicode="&#xcb;" horiz-adv-x="562" 
d="M509 702v-123h-285v-159h255v-123h-255v-174h285v-123h-425v702h425zM192 751q-35 0 -60 25.5t-25 60.5t25 60.5t60 25.5t60.5 -25.5t25.5 -60.5t-25.5 -60.5t-60.5 -25.5zM403 751q-35 0 -60 25t-25 61t25 61t60 25t60 -25t25 -61t-25 -61t-60 -25z" />
    <glyph glyph-name="Igrave" unicode="&#xcc;" horiz-adv-x="308" 
d="M84 0v702h140v-702h-140zM244 745h-121l-143 173h171z" />
    <glyph glyph-name="Iacute" unicode="&#xcd;" horiz-adv-x="308" 
d="M84 0v702h140v-702h-140zM65 745l94 173h170l-143 -173h-121z" />
    <glyph glyph-name="Icircumflex" unicode="&#xce;" horiz-adv-x="308" 
d="M84 0v702h140v-702h-140zM221 745l-67 86l-67 -86h-121l102 173h172l102 -173h-121z" />
    <glyph glyph-name="Idieresis" unicode="&#xcf;" horiz-adv-x="308" 
d="M84 0v702h140v-702h-140zM48 751q-35 0 -60 25.5t-25 60.5t25 60.5t60 25.5t60.5 -25.5t25.5 -60.5t-25.5 -60.5t-60.5 -25.5zM259 751q-35 0 -60 25t-25 61t25 61t60 25t60 -25t25 -61t-25 -61t-60 -25z" />
    <glyph glyph-name="Eth" unicode="&#xd0;" horiz-adv-x="735" 
d="M1 291v123h83v288h231q83 0 153.5 -25t121.5 -71t78.5 -111.5t27.5 -142.5q0 -78 -27.5 -143.5t-78.5 -112t-121.5 -71.5t-153.5 -25h-231v291h-83zM224 123h95q111 0 172 61.5t61 167.5q0 105 -61 166t-172 61h-95v-165h155v-123h-155v-168z" />
    <glyph glyph-name="Ntilde" unicode="&#xd1;" horiz-adv-x="764" 
d="M540 702h140v-702h-131l-325 462v-462h-140v702h140l316 -459v459zM451 861q15 0 25.5 13t11.5 38h89q-1 -70 -34.5 -112.5t-85.5 -42.5q-17 0 -34.5 5t-47.5 22.5t-42 20.5t-20 3q-15 0 -25 -13t-12 -38h-89q2 71 34.5 113t86.5 42q11 0 24 -2.5t24 -7.5t42.5 -23
t52.5 -18z" />
    <glyph glyph-name="Ograve" unicode="&#xd2;" horiz-adv-x="796" 
d="M40 351q0 77 27.5 144t77 115.5t115.5 75t138 26.5q73 0 139 -26.5t115 -75t76.5 -115.5t27.5 -144t-27.5 -144t-77 -115.5t-115 -75t-138.5 -26.5q-72 0 -138 26.5t-115.5 75t-77 115.5t-27.5 144zM612 351q0 105 -59 168.5t-155 63.5q-47 0 -86.5 -16.5t-68.5 -47
t-44.5 -73.5t-15.5 -95q0 -104 60 -167.5t155 -63.5t154.5 63.5t59.5 167.5zM488 745h-121l-143 173h171z" />
    <glyph glyph-name="Oacute" unicode="&#xd3;" horiz-adv-x="796" 
d="M40 351q0 77 27.5 144t77 115.5t115.5 75t138 26.5q73 0 139 -26.5t115 -75t76.5 -115.5t27.5 -144t-27.5 -144t-77 -115.5t-115 -75t-138.5 -26.5q-72 0 -138 26.5t-115.5 75t-77 115.5t-27.5 144zM612 351q0 105 -59 168.5t-155 63.5q-47 0 -86.5 -16.5t-68.5 -47
t-44.5 -73.5t-15.5 -95q0 -104 60 -167.5t155 -63.5t154.5 63.5t59.5 167.5zM309 745l94 173h170l-143 -173h-121z" />
    <glyph glyph-name="Ocircumflex" unicode="&#xd4;" horiz-adv-x="796" 
d="M40 351q0 77 27.5 144t77 115.5t115.5 75t138 26.5q73 0 139 -26.5t115 -75t76.5 -115.5t27.5 -144t-27.5 -144t-77 -115.5t-115 -75t-138.5 -26.5q-72 0 -138 26.5t-115.5 75t-77 115.5t-27.5 144zM612 351q0 105 -59 168.5t-155 63.5q-47 0 -86.5 -16.5t-68.5 -47
t-44.5 -73.5t-15.5 -95q0 -104 60 -167.5t155 -63.5t154.5 63.5t59.5 167.5zM465 745l-67 86l-67 -86h-121l102 173h172l102 -173h-121z" />
    <glyph glyph-name="Otilde" unicode="&#xd5;" horiz-adv-x="796" 
d="M40 351q0 77 27.5 144t77 115.5t115.5 75t138 26.5q73 0 139 -26.5t115 -75t76.5 -115.5t27.5 -144t-27.5 -144t-77 -115.5t-115 -75t-138.5 -26.5q-72 0 -138 26.5t-115.5 75t-77 115.5t-27.5 144zM612 351q0 105 -59 168.5t-155 63.5q-47 0 -86.5 -16.5t-68.5 -47
t-44.5 -73.5t-15.5 -95q0 -104 60 -167.5t155 -63.5t154.5 63.5t59.5 167.5zM467 861q15 0 25.5 13t11.5 38h89q-1 -70 -34.5 -112.5t-85.5 -42.5q-17 0 -34.5 5t-47.5 22.5t-42 20.5t-20 3q-15 0 -25 -13t-12 -38h-89q2 71 34.5 113t86.5 42q11 0 24 -2.5t24 -7.5t42.5 -23
t52.5 -18z" />
    <glyph glyph-name="Odieresis" unicode="&#xd6;" horiz-adv-x="796" 
d="M40 351q0 77 27.5 144t77 115.5t115.5 75t138 26.5q73 0 139 -26.5t115 -75t76.5 -115.5t27.5 -144t-27.5 -144t-77 -115.5t-115 -75t-138.5 -26.5q-72 0 -138 26.5t-115.5 75t-77 115.5t-27.5 144zM612 351q0 105 -59 168.5t-155 63.5q-47 0 -86.5 -16.5t-68.5 -47
t-44.5 -73.5t-15.5 -95q0 -104 60 -167.5t155 -63.5t154.5 63.5t59.5 167.5zM292 751q-35 0 -60 25.5t-25 60.5t25 60.5t60 25.5t60.5 -25.5t25.5 -60.5t-25.5 -60.5t-60.5 -25.5zM503 751q-35 0 -60 25t-25 61t25 61t60 25t60 -25t25 -61t-25 -61t-60 -25z" />
    <glyph glyph-name="multiply" unicode="&#xd7;" horiz-adv-x="628" 
d="M84 211l147 147l-147 147l82 82l147 -147l148 148l82 -82l-148 -148l148 -148l-82 -82l-148 148l-147 -147z" />
    <glyph glyph-name="Oslash" unicode="&#xd8;" horiz-adv-x="796" 
d="M20 0l101 117q-38 46 -59.5 106.5t-21.5 127.5q0 77 27.5 144t77 115.5t115.5 75t138 26.5q105 0 192 -52l37 42h145l-99 -114q39 -46 61 -107.5t22 -129.5q0 -77 -27.5 -144t-77 -115.5t-115 -75t-138.5 -26.5q-106 0 -194 55l-39 -45h-145zM183 351q0 -34 8 -68t22 -59
l290 334q-47 25 -105 25q-47 0 -86.5 -16.5t-68.5 -47t-44.5 -73.5t-15.5 -95zM612 351q0 36 -8.5 70.5t-22.5 59.5l-290 -335q22 -12 50.5 -19t56.5 -7q95 0 154.5 63.5t59.5 167.5z" />
    <glyph glyph-name="Ugrave" unicode="&#xd9;" horiz-adv-x="718" 
d="M78 265v437h140v-437q0 -72 36.5 -109t103.5 -37q68 0 105 37t37 109v437h140v-437q0 -66 -23 -119t-63 -87t-91.5 -51.5t-106.5 -17.5q-56 0 -106.5 17t-89 51.5t-60.5 87t-22 119.5zM449 745h-121l-143 173h171z" />
    <glyph glyph-name="Uacute" unicode="&#xda;" horiz-adv-x="718" 
d="M78 265v437h140v-437q0 -72 36.5 -109t103.5 -37q68 0 105 37t37 109v437h140v-437q0 -66 -23 -119t-63 -87t-91.5 -51.5t-106.5 -17.5q-56 0 -106.5 17t-89 51.5t-60.5 87t-22 119.5zM270 745l94 173h170l-143 -173h-121z" />
    <glyph glyph-name="Ucircumflex" unicode="&#xdb;" horiz-adv-x="718" 
d="M78 265v437h140v-437q0 -72 36.5 -109t103.5 -37q68 0 105 37t37 109v437h140v-437q0 -66 -23 -119t-63 -87t-91.5 -51.5t-106.5 -17.5q-56 0 -106.5 17t-89 51.5t-60.5 87t-22 119.5zM426 745l-67 86l-67 -86h-121l102 173h172l102 -173h-121z" />
    <glyph glyph-name="Udieresis" unicode="&#xdc;" horiz-adv-x="718" 
d="M78 265v437h140v-437q0 -72 36.5 -109t103.5 -37q68 0 105 37t37 109v437h140v-437q0 -66 -23 -119t-63 -87t-91.5 -51.5t-106.5 -17.5q-56 0 -106.5 17t-89 51.5t-60.5 87t-22 119.5zM253 751q-35 0 -60 25.5t-25 60.5t25 60.5t60 25.5t60.5 -25.5t25.5 -60.5
t-25.5 -60.5t-60.5 -25.5zM464 751q-35 0 -60 25t-25 61t25 61t60 25t60 -25t25 -61t-25 -61t-60 -25z" />
    <glyph glyph-name="Yacute" unicode="&#xdd;" horiz-adv-x="640" 
d="M250 254l-242 448h156l162 -318l157 318h149l-242 -448v-254h-140v254zM231 745l94 173h170l-143 -173h-121z" />
    <glyph glyph-name="Thorn" unicode="&#xde;" horiz-adv-x="619" 
d="M84 0v702h140v-129h117q60 0 108 -17.5t80 -48t48 -71t16 -84.5q0 -38 -13 -76t-42.5 -70t-79 -52t-117.5 -20h-117v-134h-140zM341 250q51 0 79.5 28t28.5 74q0 34 -16 60t-41.5 35.5t-50.5 9.5h-117v-207h117z" />
    <glyph glyph-name="germandbls" unicode="&#xdf;" horiz-adv-x="738" 
d="M25 443v114h60v4q0 62 32 110t90.5 75t143.5 27q111 0 173 -48t62 -123q0 -18 -6 -39.5t-20.5 -43t-45 -53t-36.5 -43.5t-6 -20q0 -19 19 -33.5t77 -35.5q79 -27 112 -69t33 -101q0 -79 -55.5 -126.5t-150.5 -47.5q-90 0 -149 50t-74 140h143q18 -78 82 -78q29 0 45 13
t16 38q0 28 -18.5 44t-69.5 34q-78 27 -114.5 60.5t-36.5 78.5q0 16 6 35.5t18.5 36.5t47.5 54t42 54t7 29q0 18 -10 36.5t-35.5 29t-58.5 10.5q-66 0 -94.5 -29.5t-28.5 -87.5v-538h-140v443h-60z" />
    <glyph glyph-name="agrave" unicode="&#xe0;" 
d="M186 278q0 -74 38.5 -121t103.5 -47q32 0 65.5 16t55.5 57.5t22 94.5q0 73 -39 121t-105 48q-65 0 -103 -47t-38 -122zM469 477v80h140v-557h-140v83q-28 -44 -72 -68.5t-98 -24.5q-41 0 -85 14t-87 53t-64.5 99t-21.5 122t18.5 115.5t53.5 92.5t83 60t104 21
q55 0 98.5 -23.5t70.5 -66.5zM433 600h-121l-143 173h171z" />
    <glyph glyph-name="aacute" unicode="&#xe1;" 
d="M186 278q0 -74 38.5 -121t103.5 -47q32 0 65.5 16t55.5 57.5t22 94.5q0 73 -39 121t-105 48q-65 0 -103 -47t-38 -122zM469 477v80h140v-557h-140v83q-28 -44 -72 -68.5t-98 -24.5q-41 0 -85 14t-87 53t-64.5 99t-21.5 122t18.5 115.5t53.5 92.5t83 60t104 21
q55 0 98.5 -23.5t70.5 -66.5zM253 600l94 173h170l-143 -173h-121z" />
    <glyph glyph-name="acircumflex" unicode="&#xe2;" 
d="M186 278q0 -74 38.5 -121t103.5 -47q32 0 65.5 16t55.5 57.5t22 94.5q0 73 -39 121t-105 48q-65 0 -103 -47t-38 -122zM469 477v80h140v-557h-140v83q-28 -44 -72 -68.5t-98 -24.5q-41 0 -85 14t-87 53t-64.5 99t-21.5 122t18.5 115.5t53.5 92.5t83 60t104 21
q55 0 98.5 -23.5t70.5 -66.5zM410 600l-67 86l-67 -86h-121l102 173h172l102 -173h-121z" />
    <glyph glyph-name="atilde" unicode="&#xe3;" 
d="M186 278q0 -74 38.5 -121t103.5 -47q32 0 65.5 16t55.5 57.5t22 94.5q0 73 -39 121t-105 48q-65 0 -103 -47t-38 -122zM469 477v80h140v-557h-140v83q-28 -44 -72 -68.5t-98 -24.5q-41 0 -85 14t-87 53t-64.5 99t-21.5 122t18.5 115.5t53.5 92.5t83 60t104 21
q55 0 98.5 -23.5t70.5 -66.5zM411 716q15 0 25.5 13t11.5 38h89q-1 -70 -34.5 -112.5t-85.5 -42.5q-17 0 -34.5 5t-47.5 22.5t-42 20.5t-20 3q-15 0 -25 -13t-12 -38h-89q2 71 34.5 113t86.5 42q11 0 24 -2.5t24 -7.5t42.5 -23t52.5 -18z" />
    <glyph glyph-name="adieresis" unicode="&#xe4;" 
d="M186 278q0 -74 38.5 -121t103.5 -47q32 0 65.5 16t55.5 57.5t22 94.5q0 73 -39 121t-105 48q-65 0 -103 -47t-38 -122zM469 477v80h140v-557h-140v83q-28 -44 -72 -68.5t-98 -24.5q-41 0 -85 14t-87 53t-64.5 99t-21.5 122t18.5 115.5t53.5 92.5t83 60t104 21
q55 0 98.5 -23.5t70.5 -66.5zM237 606q-35 0 -60 25.5t-25 60.5t25 60.5t60 25.5t60.5 -25.5t25.5 -60.5t-25.5 -60.5t-60.5 -25.5zM448 606q-35 0 -60 25t-25 61t25 61t60 25t60 -25t25 -61t-25 -61t-60 -25z" />
    <glyph glyph-name="aring" unicode="&#xe5;" 
d="M186 278q0 -74 38.5 -121t103.5 -47q32 0 65.5 16t55.5 57.5t22 94.5q0 73 -39 121t-105 48q-65 0 -103 -47t-38 -122zM469 477v80h140v-557h-140v83q-28 -44 -72 -68.5t-98 -24.5q-41 0 -85 14t-87 53t-64.5 99t-21.5 122t18.5 115.5t53.5 92.5t83 60t104 21
q55 0 98.5 -23.5t70.5 -66.5zM228 698q0 23 11 49t39.5 44t64.5 18q50 0 82 -31t32 -80q0 -23 -11 -49t-39 -44t-64 -18q-23 0 -50 10.5t-46 38t-19 62.5zM382 699q0 17 -11 29t-28 12t-28.5 -12t-11.5 -29q0 -18 11 -30t29 -12q17 0 28 12t11 30z" />
    <glyph glyph-name="ae" unicode="&#xe6;" horiz-adv-x="1059" 
d="M750 108q31 0 57 12t39.5 32.5t17.5 41.5h148q-20 -93 -87 -148.5t-156 -55.5q-57 0 -105.5 21t-81.5 58v-69h-113v83q-28 -44 -72 -68.5t-98 -24.5q-41 0 -85 14t-87 53t-64.5 99t-21.5 122t18.5 115.5t53.5 92.5t83 60t104 21q55 0 98.5 -23.5t70.5 -66.5v80h113v-70
q34 38 83 59t106 21q49 0 94.5 -19t80.5 -55.5t54.5 -88t19.5 -112.5q0 -15 -4 -51h-402q4 -29 19.5 -60.5t47 -52t69.5 -20.5zM750 449q-50 0 -86 -31.5t-48 -86.5h260q-5 54 -41 86t-85 32zM186 278q0 -74 38.5 -121t103.5 -47q32 0 65.5 16t55.5 57.5t22 94.5
q0 73 -39 121t-105 48q-65 0 -103 -47t-38 -122z" />
    <glyph glyph-name="ccedilla" unicode="&#xe7;" horiz-adv-x="612" 
d="M41 278q0 61 20.5 114.5t58.5 92.5t90 60.5t111 21.5q101 0 171 -57.5t85 -155.5h-151q-10 43 -39 67.5t-71 24.5q-57 0 -93.5 -46t-36.5 -123q0 -76 36.5 -121t93.5 -45q40 0 71 25.5t39 66.5h151q-19 -91 -79 -147t-150 -64v-34q54 0 82 -23.5t28 -60.5q0 -46 -34 -73
t-92 -27q-52 0 -91 13v74q37 -11 65 -11q39 0 39 25q0 14 -11.5 20t-36.5 6h-25v92q-49 7 -92 31.5t-74 62t-48 87t-17 104.5z" />
    <glyph glyph-name="egrave" unicode="&#xe8;" horiz-adv-x="629" 
d="M319 108q31 0 57.5 12t40 32.5t17.5 41.5h148q-21 -95 -91 -149.5t-172 -54.5q-58 0 -109 21.5t-89 60.5t-59 92.5t-21 114.5t21 114.5t59.5 92.5t91 60t111.5 21q56 0 104.5 -19t84.5 -55t56 -87.5t20 -113.5q0 -27 -4 -51h-400q4 -29 19 -60.5t46 -52t69 -20.5z
M319 449q-49 0 -84.5 -31.5t-47.5 -86.5h259q-2 26 -16.5 54t-45 46t-65.5 18zM404 600h-121l-143 173h171z" />
    <glyph glyph-name="eacute" unicode="&#xe9;" horiz-adv-x="629" 
d="M319 108q31 0 57.5 12t40 32.5t17.5 41.5h148q-21 -95 -91 -149.5t-172 -54.5q-58 0 -109 21.5t-89 60.5t-59 92.5t-21 114.5t21 114.5t59.5 92.5t91 60t111.5 21q56 0 104.5 -19t84.5 -55t56 -87.5t20 -113.5q0 -27 -4 -51h-400q4 -29 19 -60.5t46 -52t69 -20.5z
M319 449q-49 0 -84.5 -31.5t-47.5 -86.5h259q-2 26 -16.5 54t-45 46t-65.5 18zM225 600l94 173h170l-143 -173h-121z" />
    <glyph glyph-name="ecircumflex" unicode="&#xea;" horiz-adv-x="629" 
d="M319 108q31 0 57.5 12t40 32.5t17.5 41.5h148q-21 -95 -91 -149.5t-172 -54.5q-58 0 -109 21.5t-89 60.5t-59 92.5t-21 114.5t21 114.5t59.5 92.5t91 60t111.5 21q56 0 104.5 -19t84.5 -55t56 -87.5t20 -113.5q0 -27 -4 -51h-400q4 -29 19 -60.5t46 -52t69 -20.5z
M319 449q-49 0 -84.5 -31.5t-47.5 -86.5h259q-2 26 -16.5 54t-45 46t-65.5 18zM382 600l-67 86l-67 -86h-121l102 173h172l102 -173h-121z" />
    <glyph glyph-name="edieresis" unicode="&#xeb;" horiz-adv-x="629" 
d="M319 108q31 0 57.5 12t40 32.5t17.5 41.5h148q-21 -95 -91 -149.5t-172 -54.5q-58 0 -109 21.5t-89 60.5t-59 92.5t-21 114.5t21 114.5t59.5 92.5t91 60t111.5 21q56 0 104.5 -19t84.5 -55t56 -87.5t20 -113.5q0 -27 -4 -51h-400q4 -29 19 -60.5t46 -52t69 -20.5z
M319 449q-49 0 -84.5 -31.5t-47.5 -86.5h259q-2 26 -16.5 54t-45 46t-65.5 18zM209 606q-35 0 -60 25.5t-25 60.5t25 60.5t60 25.5t60.5 -25.5t25.5 -60.5t-25.5 -60.5t-60.5 -25.5zM420 606q-35 0 -60 25t-25 61t25 61t60 25t60 -25t25 -61t-25 -61t-60 -25z" />
    <glyph glyph-name="igrave" unicode="&#xec;" horiz-adv-x="292" 
d="M76 0v557h140v-557h-140zM236 600h-121l-143 173h171z" />
    <glyph glyph-name="iacute" unicode="&#xed;" horiz-adv-x="292" 
d="M76 0v557h140v-557h-140zM57 600l94 173h170l-143 -173h-121z" />
    <glyph glyph-name="icircumflex" unicode="&#xee;" horiz-adv-x="292" 
d="M76 0v557h140v-557h-140zM213 600l-67 86l-67 -86h-121l102 173h172l102 -173h-121z" />
    <glyph glyph-name="idieresis" unicode="&#xef;" horiz-adv-x="292" 
d="M76 0v557h140v-557h-140zM40 606q-35 0 -60 25.5t-25 60.5t25 60.5t60 25.5t60.5 -25.5t25.5 -60.5t-25.5 -60.5t-60.5 -25.5zM251 606q-35 0 -60 25t-25 61t25 61t60 25t60 -25t25 -61t-25 -61t-60 -25z" />
    <glyph glyph-name="eth" unicode="&#xf0;" horiz-adv-x="637" 
d="M318 105q37 0 72 19t53.5 55.5t18.5 78.5q0 41 -18.5 77t-52.5 54.5t-70 18.5q-62 0 -104 -42.5t-42 -110.5q0 -33 14 -68t49.5 -58.5t79.5 -23.5zM320 -10q-59 0 -111.5 20t-90.5 56t-59 86t-21 107q0 53 19 100.5t54 82t82.5 54t100.5 19.5q62 0 111 -29q-36 49 -79 97
l-174 -47v107l90 25q-19 18 -53 47.5t-56 47.5h159l27 -23l45 -39l141 38v-107l-57 -15q78 -86 114.5 -172t36.5 -183q0 -58 -21 -108.5t-58.5 -87t-89.5 -56.5t-110 -20z" />
    <glyph glyph-name="ntilde" unicode="&#xf1;" horiz-adv-x="665" 
d="M76 0v557h140v-82q25 43 68.5 67.5t97.5 24.5q43 0 81 -16t66.5 -46.5t44 -75.5t15.5 -100v-329h-140v309q0 32 -10 63.5t-38.5 52t-67.5 20.5q-25 0 -50.5 -10.5t-40.5 -32t-20.5 -45.5t-5.5 -48v-309h-140zM402 716q15 0 25.5 13t11.5 38h89q-1 -70 -34.5 -112.5
t-85.5 -42.5q-17 0 -34.5 5t-47.5 22.5t-42 20.5t-20 3q-15 0 -25 -13t-12 -38h-89q2 71 34.5 113t86.5 42q11 0 24 -2.5t24 -7.5t42.5 -23t52.5 -18z" />
    <glyph glyph-name="ograve" unicode="&#xf2;" horiz-adv-x="662" 
d="M334 567q60 0 113 -21t92 -60t60.5 -92.5t21.5 -114.5t-22 -114.5t-61.5 -92.5t-93 -60.5t-113.5 -21.5q-61 0 -114.5 21.5t-92.5 60.5t-61 93t-22 115q0 45 15 94t46 86.5t66.5 60t78 34.5t87.5 12zM332 446q-63 0 -104.5 -46t-41.5 -121q0 -76 41 -122t104 -46t104 46
t41 122t-41 121.5t-103 45.5zM421 600h-121l-143 173h171z" />
    <glyph glyph-name="oacute" unicode="&#xf3;" horiz-adv-x="662" 
d="M334 567q60 0 113 -21t92 -60t60.5 -92.5t21.5 -114.5t-22 -114.5t-61.5 -92.5t-93 -60.5t-113.5 -21.5q-61 0 -114.5 21.5t-92.5 60.5t-61 93t-22 115q0 45 15 94t46 86.5t66.5 60t78 34.5t87.5 12zM332 446q-63 0 -104.5 -46t-41.5 -121q0 -76 41 -122t104 -46t104 46
t41 122t-41 121.5t-103 45.5zM242 600l94 173h170l-143 -173h-121z" />
    <glyph glyph-name="ocircumflex" unicode="&#xf4;" horiz-adv-x="662" 
d="M334 567q60 0 113 -21t92 -60t60.5 -92.5t21.5 -114.5t-22 -114.5t-61.5 -92.5t-93 -60.5t-113.5 -21.5q-61 0 -114.5 21.5t-92.5 60.5t-61 93t-22 115q0 45 15 94t46 86.5t66.5 60t78 34.5t87.5 12zM332 446q-63 0 -104.5 -46t-41.5 -121q0 -76 41 -122t104 -46t104 46
t41 122t-41 121.5t-103 45.5zM398 600l-67 86l-67 -86h-121l102 173h172l102 -173h-121z" />
    <glyph glyph-name="otilde" unicode="&#xf5;" horiz-adv-x="662" 
d="M334 567q60 0 113 -21t92 -60t60.5 -92.5t21.5 -114.5t-22 -114.5t-61.5 -92.5t-93 -60.5t-113.5 -21.5q-61 0 -114.5 21.5t-92.5 60.5t-61 93t-22 115q0 45 15 94t46 86.5t66.5 60t78 34.5t87.5 12zM332 446q-63 0 -104.5 -46t-41.5 -121q0 -76 41 -122t104 -46t104 46
t41 122t-41 121.5t-103 45.5zM400 716q15 0 25.5 13t11.5 38h89q-1 -70 -34.5 -112.5t-85.5 -42.5q-17 0 -34.5 5t-47.5 22.5t-42 20.5t-20 3q-15 0 -25 -13t-12 -38h-89q2 71 34.5 113t86.5 42q11 0 24 -2.5t24 -7.5t42.5 -23t52.5 -18z" />
    <glyph glyph-name="odieresis" unicode="&#xf6;" horiz-adv-x="662" 
d="M334 567q60 0 113 -21t92 -60t60.5 -92.5t21.5 -114.5t-22 -114.5t-61.5 -92.5t-93 -60.5t-113.5 -21.5q-61 0 -114.5 21.5t-92.5 60.5t-61 93t-22 115q0 45 15 94t46 86.5t66.5 60t78 34.5t87.5 12zM332 446q-63 0 -104.5 -46t-41.5 -121q0 -76 41 -122t104 -46t104 46
t41 122t-41 121.5t-103 45.5zM226 606q-35 0 -60 25.5t-25 60.5t25 60.5t60 25.5t60.5 -25.5t25.5 -60.5t-25.5 -60.5t-60.5 -25.5zM437 606q-35 0 -60 25t-25 61t25 61t60 25t60 -25t25 -61t-25 -61t-60 -25z" />
    <glyph glyph-name="divide" unicode="&#xf7;" horiz-adv-x="628" 
d="M313 486q-33 0 -56.5 24t-23.5 57q0 16 8 35t28 32.5t44 13.5q34 0 58 -23.5t24 -57.5q0 -33 -24 -57t-58 -24zM313 67q-33 0 -56.5 23.5t-23.5 56.5q0 16 8 35t28 32.5t44 13.5q34 0 58 -23.5t24 -57.5q0 -33 -24 -56.5t-58 -23.5zM64 299v116h500v-116h-500z" />
    <glyph glyph-name="oslash" unicode="&#xf8;" horiz-adv-x="662" 
d="M148 0h-123l80 92q-30 37 -47 85.5t-17 102.5q0 45 15 94t46 86.5t66.5 60t78 34.5t87.5 12q87 0 153 -40l27 30h124l-80 -91q30 -37 46.5 -85t16.5 -102q0 -61 -22 -114.5t-61.5 -92.5t-93 -60.5t-113.5 -21.5q-86 0 -155 41zM186 279q0 -45 14 -79l201 228
q-30 18 -69 18q-63 0 -104.5 -46t-41.5 -121zM331 111q63 0 104 46t41 122q0 42 -14 78l-201 -228q32 -18 70 -18z" />
    <glyph glyph-name="ugrave" unicode="&#xf9;" horiz-adv-x="652" 
d="M576 557v-557h-140v83q-25 -44 -67.5 -68.5t-96.5 -24.5q-89 0 -147.5 64t-58.5 174v329h140v-309q0 -32 10 -63.5t38 -52t66 -20.5q53 0 84.5 35.5t31.5 100.5v309h140zM416 600h-121l-143 173h171z" />
    <glyph glyph-name="uacute" unicode="&#xfa;" horiz-adv-x="652" 
d="M576 557v-557h-140v83q-25 -44 -67.5 -68.5t-96.5 -24.5q-89 0 -147.5 64t-58.5 174v329h140v-309q0 -32 10 -63.5t38 -52t66 -20.5q53 0 84.5 35.5t31.5 100.5v309h140zM237 600l94 173h170l-143 -173h-121z" />
    <glyph glyph-name="ucircumflex" unicode="&#xfb;" horiz-adv-x="652" 
d="M576 557v-557h-140v83q-25 -44 -67.5 -68.5t-96.5 -24.5q-89 0 -147.5 64t-58.5 174v329h140v-309q0 -32 10 -63.5t38 -52t66 -20.5q53 0 84.5 35.5t31.5 100.5v309h140zM393 600l-67 86l-67 -86h-121l102 173h172l102 -173h-121z" />
    <glyph glyph-name="udieresis" unicode="&#xfc;" horiz-adv-x="652" 
d="M576 557v-557h-140v83q-25 -44 -67.5 -68.5t-96.5 -24.5q-89 0 -147.5 64t-58.5 174v329h140v-309q0 -32 10 -63.5t38 -52t66 -20.5q53 0 84.5 35.5t31.5 100.5v309h140zM220 606q-35 0 -60 25.5t-25 60.5t25 60.5t60 25.5t60.5 -25.5t25.5 -60.5t-25.5 -60.5
t-60.5 -25.5zM431 606q-35 0 -60 25t-25 61t25 61t60 25t60 -25t25 -61t-25 -61t-60 -25z" />
    <glyph glyph-name="yacute" unicode="&#xfd;" horiz-adv-x="612" 
d="M139 -226l101 242l-232 541h153l151 -367l153 367h139l-327 -783h-138zM217 600l94 173h170l-143 -173h-121z" />
    <glyph glyph-name="thorn" unicode="&#xfe;" 
d="M499 279q0 74 -38.5 121t-103.5 47t-104 -47.5t-39 -120.5t39 -121t105 -48q65 1 103 47.5t38 121.5zM216 80v-306h-140v989h140v-289q20 33 50.5 55t62.5 30t58 8q55 0 102.5 -21t82 -59.5t53.5 -92t19 -115.5t-18.5 -115.5t-53.5 -92.5t-83 -60t-104 -21
q-55 0 -98.5 23.5t-70.5 66.5z" />
    <glyph glyph-name="ydieresis" unicode="&#xff;" horiz-adv-x="612" 
d="M139 -226l101 242l-232 541h153l151 -367l153 367h139l-327 -783h-138zM200 606q-35 0 -60 25.5t-25 60.5t25 60.5t60 25.5t60.5 -25.5t25.5 -60.5t-25.5 -60.5t-60.5 -25.5zM411 606q-35 0 -60 25t-25 61t25 61t60 25t60 -25t25 -61t-25 -61t-60 -25z" />
    <glyph glyph-name="Amacron" unicode="&#x100;" horiz-adv-x="691" 
d="M262 703h168l249 -703h-147l-43 129h-287l-43 -129h-147zM180 776v106h331v-106h-331zM447 252l-101 302l-102 -302h203z" />
    <glyph glyph-name="amacron" unicode="&#x101;" 
d="M186 278q0 -74 38.5 -121t103.5 -47q32 0 65.5 16t55.5 57.5t22 94.5q0 73 -39 121t-105 48q-65 0 -103 -47t-38 -122zM469 477v80h140v-557h-140v83q-28 -44 -72 -68.5t-98 -24.5q-41 0 -85 14t-87 53t-64.5 99t-21.5 122t18.5 115.5t53.5 92.5t83 60t104 21
q55 0 98.5 -23.5t70.5 -66.5zM177 631v106h331v-106h-331z" />
    <glyph glyph-name="Abreve" unicode="&#x102;" horiz-adv-x="691" 
d="M262 703h168l249 -703h-147l-43 129h-287l-43 -129h-147zM501 890q0 -70 -42.5 -110t-113.5 -40t-113.5 40t-42.5 110v25h83q0 -36 17 -54.5t56 -18.5t56 18.5t17 54.5h83v-25zM447 252l-101 302l-102 -302h203z" />
    <glyph glyph-name="abreve" unicode="&#x103;" 
d="M186 278q0 -74 38.5 -121t103.5 -47q32 0 65.5 16t55.5 57.5t22 94.5q0 73 -39 121t-105 48q-65 0 -103 -47t-38 -122zM469 477v80h140v-557h-140v83q-28 -44 -72 -68.5t-98 -24.5q-41 0 -85 14t-87 53t-64.5 99t-21.5 122t18.5 115.5t53.5 92.5t83 60t104 21
q55 0 98.5 -23.5t70.5 -66.5zM499 745q0 -70 -42.5 -110t-113.5 -40t-113.5 40t-42.5 110v25h83q0 -36 17 -54.5t56 -18.5t56 18.5t17 54.5h83v-25z" />
    <glyph glyph-name="Aogonek" unicode="&#x104;" horiz-adv-x="691" 
d="M262 703h168l249 -703h-64l-33 -20q-64 -41 -64 -81q0 -16 11 -25.5t32 -9.5q28 0 53 11v-86q-30 -15 -83 -15q-61 0 -94 25t-33 71q0 66 82 127l38 28l-35 104h-287l-43 -129h-147zM447 252l-101 302l-102 -302h203z" />
    <glyph glyph-name="aogonek" unicode="&#x105;" 
d="M186 278q0 -74 38.5 -121t103.5 -47q32 0 65.5 16t55.5 57.5t22 94.5q0 73 -39 121t-105 48q-65 0 -103 -47t-38 -122zM469 477v80h140v-557h-28l-32 -20q-64 -41 -64 -81q0 -35 43 -35q28 0 53 11v-86q-31 -15 -83 -15q-61 0 -94 25t-33 71q0 66 82 127l16 12v74
q-28 -44 -72 -68.5t-98 -24.5q-41 0 -85 14t-87 53t-64.5 99t-21.5 122t18.5 115.5t53.5 92.5t83 60t104 21q55 0 98.5 -23.5t70.5 -66.5z" />
    <glyph glyph-name="Cacute" unicode="&#x106;" horiz-adv-x="766" 
d="M397 -10q-34 0 -78.5 8.5t-90.5 32t-89 66t-71 109.5t-28 144q0 76 27 143t75.5 116t113.5 76t138 27q60 0 116 -17.5t102 -52t77.5 -85.5t44.5 -114h-156q-14 49 -43.5 80t-65 45.5t-76.5 14.5q-94 0 -152 -65t-58 -168q0 -51 15.5 -94t44 -73.5t67 -47t83.5 -16.5
q32 0 70 12t70.5 46t47.5 82h155q-10 -47 -34.5 -95t-61.5 -82t-75 -53t-81 -29t-87 -10zM293 745l94 173h170l-143 -173h-121z" />
    <glyph glyph-name="cacute" unicode="&#x107;" horiz-adv-x="612" 
d="M41 278q0 61 20.5 114.5t58.5 92.5t90 60.5t111 21.5q101 0 171 -57.5t85 -155.5h-151q-10 43 -39 67.5t-71 24.5q-57 0 -93.5 -46t-36.5 -123q0 -76 36.5 -121t93.5 -45q40 0 71 25.5t39 66.5h151q-12 -61 -48 -112t-93 -76t-120 -25q-58 0 -108.5 21.5t-88 60t-58 92
t-20.5 114.5zM219 600l94 173h170l-143 -173h-121z" />
    <glyph glyph-name="Ccircumflex" unicode="&#x108;" horiz-adv-x="766" 
d="M397 -10q-34 0 -78.5 8.5t-90.5 32t-89 66t-71 109.5t-28 144q0 76 27 143t75.5 116t113.5 76t138 27q60 0 116 -17.5t102 -52t77.5 -85.5t44.5 -114h-156q-14 49 -43.5 80t-65 45.5t-76.5 14.5q-94 0 -152 -65t-58 -168q0 -51 15.5 -94t44 -73.5t67 -47t83.5 -16.5
q32 0 70 12t70.5 46t47.5 82h155q-10 -47 -34.5 -95t-61.5 -82t-75 -53t-81 -29t-87 -10zM449 745l-67 86l-67 -86h-121l102 173h172l102 -173h-121z" />
    <glyph glyph-name="ccircumflex" unicode="&#x109;" horiz-adv-x="612" 
d="M41 278q0 61 20.5 114.5t58.5 92.5t90 60.5t111 21.5q101 0 171 -57.5t85 -155.5h-151q-10 43 -39 67.5t-71 24.5q-57 0 -93.5 -46t-36.5 -123q0 -76 36.5 -121t93.5 -45q40 0 71 25.5t39 66.5h151q-12 -61 -48 -112t-93 -76t-120 -25q-58 0 -108.5 21.5t-88 60t-58 92
t-20.5 114.5zM375 600l-67 86l-67 -86h-121l102 173h172l102 -173h-121z" />
    <glyph glyph-name="Cdotaccent" unicode="&#x10a;" horiz-adv-x="766" 
d="M397 -10q-34 0 -78.5 8.5t-90.5 32t-89 66t-71 109.5t-28 144q0 76 27 143t75.5 116t113.5 76t138 27q60 0 116 -17.5t102 -52t77.5 -85.5t44.5 -114h-156q-14 49 -43.5 80t-65 45.5t-76.5 14.5q-94 0 -152 -65t-58 -168q0 -51 15.5 -94t44 -73.5t67 -47t83.5 -16.5
q32 0 70 12t70.5 46t47.5 82h155q-10 -47 -34.5 -95t-61.5 -82t-75 -53t-81 -29t-87 -10zM381 751q-35 0 -60 25.5t-25 60.5t25 60.5t60 25.5t60.5 -25.5t25.5 -60.5t-25.5 -60.5t-60.5 -25.5z" />
    <glyph glyph-name="cdotaccent" unicode="&#x10b;" horiz-adv-x="612" 
d="M41 278q0 61 20.5 114.5t58.5 92.5t90 60.5t111 21.5q101 0 171 -57.5t85 -155.5h-151q-10 43 -39 67.5t-71 24.5q-57 0 -93.5 -46t-36.5 -123q0 -76 36.5 -121t93.5 -45q40 0 71 25.5t39 66.5h151q-12 -61 -48 -112t-93 -76t-120 -25q-58 0 -108.5 21.5t-88 60t-58 92
t-20.5 114.5zM308 606q-35 0 -60 25.5t-25 60.5t25 60.5t60 25.5t60.5 -25.5t25.5 -60.5t-25.5 -60.5t-60.5 -25.5z" />
    <glyph glyph-name="Ccaron" unicode="&#x10c;" horiz-adv-x="766" 
d="M397 -10q-34 0 -78.5 8.5t-90.5 32t-89 66t-71 109.5t-28 144q0 76 27 143t75.5 116t113.5 76t138 27q60 0 116 -17.5t102 -52t77.5 -85.5t44.5 -114h-156q-14 49 -43.5 80t-65 45.5t-76.5 14.5q-94 0 -152 -65t-58 -168q0 -51 15.5 -94t44 -73.5t67 -47t83.5 -16.5
q32 0 70 12t70.5 46t47.5 82h155q-10 -47 -34.5 -95t-61.5 -82t-75 -53t-81 -29t-87 -10zM315 918l67 -86l67 86h121l-102 -173h-172l-102 173h121z" />
    <glyph glyph-name="ccaron" unicode="&#x10d;" horiz-adv-x="612" 
d="M41 278q0 61 20.5 114.5t58.5 92.5t90 60.5t111 21.5q101 0 171 -57.5t85 -155.5h-151q-10 43 -39 67.5t-71 24.5q-57 0 -93.5 -46t-36.5 -123q0 -76 36.5 -121t93.5 -45q40 0 71 25.5t39 66.5h151q-12 -61 -48 -112t-93 -76t-120 -25q-58 0 -108.5 21.5t-88 60t-58 92
t-20.5 114.5zM241 773l67 -86l67 86h121l-102 -173h-172l-102 173h121z" />
    <glyph glyph-name="Dcaron" unicode="&#x10e;" horiz-adv-x="735" 
d="M315 702q83 0 153.5 -25t121.5 -71t78.5 -111.5t27.5 -142.5q0 -78 -27.5 -143.5t-78.5 -112t-121.5 -71.5t-153.5 -25h-231v702h231zM224 123h95q111 0 172 61.5t61 167.5q0 105 -61 166t-172 61h-95v-456zM251 918l67 -86l67 86h121l-102 -173h-172l-102 173h121z" />
    <glyph glyph-name="dcaron" unicode="&#x10f;" horiz-adv-x="765" 
d="M186 278q0 -74 38.5 -121t103.5 -47q32 0 65.5 16t55.5 57.5t22 94.5q0 73 -39 121t-105 48q-65 0 -103 -47t-38 -122zM469 477v286h140v-763h-140v83q-28 -44 -72 -68.5t-98 -24.5q-41 0 -85 14t-87 53t-64.5 99t-21.5 122t18.5 115.5t53.5 92.5t83 60t104 21
q55 0 98.5 -23.5t70.5 -66.5zM683 756h126l-78 -229h-82z" />
    <glyph glyph-name="Dcroat" unicode="&#x110;" horiz-adv-x="735" 
d="M1 291v123h83v288h231q83 0 153.5 -25t121.5 -71t78.5 -111.5t27.5 -142.5q0 -78 -27.5 -143.5t-78.5 -112t-121.5 -71.5t-153.5 -25h-231v291h-83zM224 123h95q111 0 172 61.5t61 167.5q0 105 -61 166t-172 61h-95v-165h155v-123h-155v-168z" />
    <glyph glyph-name="dcroat" unicode="&#x111;" 
d="M186 278q0 -74 38.5 -121t103.5 -47q32 0 65.5 16t55.5 57.5t22 94.5q0 73 -39 121t-105 48q-65 0 -103 -47t-38 -122zM469 477v134h-127v106h127v46h140v-46h65v-106h-65v-611h-140v83q-28 -44 -72 -68.5t-98 -24.5q-41 0 -85 14t-87 53t-64.5 99t-21.5 122t18.5 115.5
t53.5 92.5t83 60t104 21q55 0 98.5 -23.5t70.5 -66.5z" />
    <glyph glyph-name="Emacron" unicode="&#x112;" horiz-adv-x="562" 
d="M509 702v-123h-285v-159h255v-123h-255v-174h285v-123h-425v702h425zM132 776v106h331v-106h-331z" />
    <glyph glyph-name="emacron" unicode="&#x113;" horiz-adv-x="629" 
d="M319 108q31 0 57.5 12t40 32.5t17.5 41.5h148q-21 -95 -91 -149.5t-172 -54.5q-58 0 -109 21.5t-89 60.5t-59 92.5t-21 114.5t21 114.5t59.5 92.5t91 60t111.5 21q56 0 104.5 -19t84.5 -55t56 -87.5t20 -113.5q0 -27 -4 -51h-400q4 -29 19 -60.5t46 -52t69 -20.5z
M319 449q-49 0 -84.5 -31.5t-47.5 -86.5h259q-2 26 -16.5 54t-45 46t-65.5 18zM149 631v106h331v-106h-331z" />
    <glyph glyph-name="Ebreve" unicode="&#x114;" horiz-adv-x="562" 
d="M509 702v-123h-285v-159h255v-123h-255v-174h285v-123h-425v702h425zM453 890q0 -70 -42.5 -110t-113.5 -40t-113.5 40t-42.5 110v25h83q0 -36 17 -54.5t56 -18.5t56 18.5t17 54.5h83v-25z" />
    <glyph glyph-name="ebreve" unicode="&#x115;" horiz-adv-x="629" 
d="M319 108q31 0 57.5 12t40 32.5t17.5 41.5h148q-21 -95 -91 -149.5t-172 -54.5q-58 0 -109 21.5t-89 60.5t-59 92.5t-21 114.5t21 114.5t59.5 92.5t91 60t111.5 21q56 0 104.5 -19t84.5 -55t56 -87.5t20 -113.5q0 -27 -4 -51h-400q4 -29 19 -60.5t46 -52t69 -20.5z
M319 449q-49 0 -84.5 -31.5t-47.5 -86.5h259q-2 26 -16.5 54t-45 46t-65.5 18zM470 745q0 -70 -42.5 -110t-113.5 -40t-113.5 40t-42.5 110v25h83q0 -36 17 -54.5t56 -18.5t56 18.5t17 54.5h83v-25z" />
    <glyph glyph-name="Edotaccent" unicode="&#x116;" horiz-adv-x="562" 
d="M509 702v-123h-285v-159h255v-123h-255v-174h285v-123h-425v702h425zM297 751q-35 0 -60 25.5t-25 60.5t25 60.5t60 25.5t60.5 -25.5t25.5 -60.5t-25.5 -60.5t-60.5 -25.5z" />
    <glyph glyph-name="edotaccent" unicode="&#x117;" horiz-adv-x="629" 
d="M319 108q31 0 57.5 12t40 32.5t17.5 41.5h148q-21 -95 -91 -149.5t-172 -54.5q-58 0 -109 21.5t-89 60.5t-59 92.5t-21 114.5t21 114.5t59.5 92.5t91 60t111.5 21q56 0 104.5 -19t84.5 -55t56 -87.5t20 -113.5q0 -27 -4 -51h-400q4 -29 19 -60.5t46 -52t69 -20.5z
M319 449q-49 0 -84.5 -31.5t-47.5 -86.5h259q-2 26 -16.5 54t-45 46t-65.5 18zM314 606q-35 0 -60 25.5t-25 60.5t25 60.5t60 25.5t60.5 -25.5t25.5 -60.5t-25.5 -60.5t-60.5 -25.5z" />
    <glyph glyph-name="Eogonek" unicode="&#x118;" horiz-adv-x="562" 
d="M509 702v-123h-285v-159h255v-123h-255v-174h285v-123h-7l-32 -20q-64 -41 -64 -81q0 -16 11 -25.5t32 -9.5q28 0 53 11v-86q-31 -15 -83 -15q-61 0 -94 25t-33 71q0 66 82 127l4 3h-294v702h425z" />
    <glyph glyph-name="eogonek" unicode="&#x119;" horiz-adv-x="629" 
d="M319 108q31 0 57.5 12t40 32.5t17.5 41.5h148q-14 -61 -50.5 -107.5t-88.5 -70.5q-41 -28 -63 -58.5t-22 -58.5q0 -16 11 -25.5t32 -9.5q28 0 53 11v-86q-30 -15 -83 -15q-61 0 -94 25t-33 71q0 63 55 121q-54 3 -101.5 26t-82.5 61.5t-54.5 90.5t-19.5 110
q0 61 21 114.5t59.5 92.5t91 60t111.5 21q56 0 104.5 -19t84.5 -55t56 -87.5t20 -113.5q0 -27 -4 -51h-400q4 -29 19 -60.5t46 -52t69 -20.5zM319 449q-49 0 -84.5 -31.5t-47.5 -86.5h259q-2 26 -16.5 54t-45 46t-65.5 18z" />
    <glyph glyph-name="Ecaron" unicode="&#x11a;" horiz-adv-x="562" 
d="M509 702v-123h-285v-159h255v-123h-255v-174h285v-123h-425v702h425zM231 918l67 -86l67 86h121l-102 -173h-172l-102 173h121z" />
    <glyph glyph-name="ecaron" unicode="&#x11b;" horiz-adv-x="629" 
d="M319 108q31 0 57.5 12t40 32.5t17.5 41.5h148q-21 -95 -91 -149.5t-172 -54.5q-58 0 -109 21.5t-89 60.5t-59 92.5t-21 114.5t21 114.5t59.5 92.5t91 60t111.5 21q56 0 104.5 -19t84.5 -55t56 -87.5t20 -113.5q0 -27 -4 -51h-400q4 -29 19 -60.5t46 -52t69 -20.5z
M319 449q-49 0 -84.5 -31.5t-47.5 -86.5h259q-2 26 -16.5 54t-45 46t-65.5 18zM248 773l67 -86l67 86h121l-102 -173h-172l-102 173h121z" />
    <glyph glyph-name="Gcircumflex" unicode="&#x11c;" horiz-adv-x="776" 
d="M40 351q0 77 27.5 144t77 115t116 74.5t139.5 26.5q55 0 108 -15t98 -46t77 -78t46 -108h-155q-22 59 -69 90.5t-109 31.5q-47 0 -86.5 -16.5t-67.5 -47.5t-43.5 -75t-15.5 -96q0 -38 10.5 -79t39.5 -80t73.5 -58t90.5 -19q27 0 58 7.5t60 27.5t51 55t27 86h-263v110h402
q6 -24 6 -61q0 -76 -25.5 -141t-72 -111.5t-109 -72t-132.5 -25.5q-73 0 -139 26.5t-115.5 75t-77 115.5t-27.5 144zM455 745l-67 86l-67 -86h-121l102 173h172l102 -173h-121z" />
    <glyph glyph-name="gcircumflex" unicode="&#x11d;" horiz-adv-x="686" 
d="M190 290q0 -70 38 -114t103 -44q24 0 49.5 8t46 27t34.5 50t14 73q0 68 -39 112.5t-104 44.5t-103.5 -44t-38.5 -113zM57 -34h147q9 -28 32 -47t51 -26t51 -7q26 0 51.5 8.5t44 27t29 47t10.5 65.5v70q-27 -45 -71.5 -69t-100.5 -24t-104 20.5t-83 58t-54 89.5t-19 112
q0 28 7.5 71t34 87t62.5 69.5t74.5 37t79.5 11.5q57 0 102 -25t72 -70v85h140v-523q0 -56 -17 -105.5t-51.5 -86.5t-86.5 -57.5t-118 -20.5q-41 0 -85.5 9.5t-89.5 36t-72.5 69t-35.5 87.5zM390 600l-67 86l-67 -86h-121l102 173h172l102 -173h-121z" />
    <glyph glyph-name="Gbreve" unicode="&#x11e;" horiz-adv-x="776" 
d="M40 351q0 77 27.5 144t77 115t116 74.5t139.5 26.5q55 0 108 -15t98 -46t77 -78t46 -108h-155q-22 59 -69 90.5t-109 31.5q-47 0 -86.5 -16.5t-67.5 -47.5t-43.5 -75t-15.5 -96q0 -38 10.5 -79t39.5 -80t73.5 -58t90.5 -19q27 0 58 7.5t60 27.5t51 55t27 86h-263v110h402
q6 -24 6 -61q0 -76 -25.5 -141t-72 -111.5t-109 -72t-132.5 -25.5q-73 0 -139 26.5t-115.5 75t-77 115.5t-27.5 144zM544 890q0 -70 -42.5 -110t-113.5 -40t-113.5 40t-42.5 110v25h83q0 -36 17 -54.5t56 -18.5t56 18.5t17 54.5h83v-25z" />
    <glyph glyph-name="gbreve" unicode="&#x11f;" horiz-adv-x="686" 
d="M190 290q0 -70 38 -114t103 -44q24 0 49.5 8t46 27t34.5 50t14 73q0 68 -39 112.5t-104 44.5t-103.5 -44t-38.5 -113zM57 -34h147q9 -28 32 -47t51 -26t51 -7q26 0 51.5 8.5t44 27t29 47t10.5 65.5v70q-27 -45 -71.5 -69t-100.5 -24t-104 20.5t-83 58t-54 89.5t-19 112
q0 28 7.5 71t34 87t62.5 69.5t74.5 37t79.5 11.5q57 0 102 -25t72 -70v85h140v-523q0 -56 -17 -105.5t-51.5 -86.5t-86.5 -57.5t-118 -20.5q-41 0 -85.5 9.5t-89.5 36t-72.5 69t-35.5 87.5zM482 745q0 -70 -42.5 -110t-113.5 -40t-113.5 40t-42.5 110v25h83q0 -36 17 -54.5
t56 -18.5t56 18.5t17 54.5h83v-25z" />
    <glyph glyph-name="Gdotaccent" unicode="&#x120;" horiz-adv-x="776" 
d="M40 351q0 77 27.5 144t77 115t116 74.5t139.5 26.5q55 0 108 -15t98 -46t77 -78t46 -108h-155q-22 59 -69 90.5t-109 31.5q-47 0 -86.5 -16.5t-67.5 -47.5t-43.5 -75t-15.5 -96q0 -38 10.5 -79t39.5 -80t73.5 -58t90.5 -19q27 0 58 7.5t60 27.5t51 55t27 86h-263v110h402
q6 -24 6 -61q0 -76 -25.5 -141t-72 -111.5t-109 -72t-132.5 -25.5q-73 0 -139 26.5t-115.5 75t-77 115.5t-27.5 144zM388 751q-35 0 -60 25.5t-25 60.5t25 60.5t60 25.5t60.5 -25.5t25.5 -60.5t-25.5 -60.5t-60.5 -25.5z" />
    <glyph glyph-name="gdotaccent" unicode="&#x121;" horiz-adv-x="686" 
d="M190 290q0 -70 38 -114t103 -44q24 0 49.5 8t46 27t34.5 50t14 73q0 68 -39 112.5t-104 44.5t-103.5 -44t-38.5 -113zM57 -34h147q9 -28 32 -47t51 -26t51 -7q26 0 51.5 8.5t44 27t29 47t10.5 65.5v70q-27 -45 -71.5 -69t-100.5 -24t-104 20.5t-83 58t-54 89.5t-19 112
q0 28 7.5 71t34 87t62.5 69.5t74.5 37t79.5 11.5q57 0 102 -25t72 -70v85h140v-523q0 -56 -17 -105.5t-51.5 -86.5t-86.5 -57.5t-118 -20.5q-41 0 -85.5 9.5t-89.5 36t-72.5 69t-35.5 87.5zM323 606q-35 0 -60 25.5t-25 60.5t25 60.5t60 25.5t60.5 -25.5t25.5 -60.5
t-25.5 -60.5t-60.5 -25.5z" />
    <glyph glyph-name="Gcommaaccent" unicode="&#x122;" horiz-adv-x="776" 
d="M40 351q0 77 27.5 144t77 115t116 74.5t139.5 26.5q55 0 108 -15t98 -46t77 -78t46 -108h-155q-22 59 -69 90.5t-109 31.5q-47 0 -86.5 -16.5t-67.5 -47.5t-43.5 -75t-15.5 -96q0 -38 10.5 -79t39.5 -80t73.5 -58t90.5 -19q27 0 58 7.5t60 27.5t51 55t27 86h-263v110h402
q6 -24 6 -61q0 -76 -25.5 -141t-72 -111.5t-109 -72t-132.5 -25.5q-73 0 -139 26.5t-115.5 75t-77 115.5t-27.5 144zM338 -48h122l-69 -175h-82z" />
    <glyph glyph-name="gcommaaccent" unicode="&#x123;" horiz-adv-x="686" 
d="M190 290q0 -70 38 -114t103 -44q24 0 49.5 8t46 27t34.5 50t14 73q0 68 -39 112.5t-104 44.5t-103.5 -44t-38.5 -113zM57 -34h147q9 -28 32 -47t51 -26t51 -7q26 0 51.5 8.5t44 27t29 47t10.5 65.5v70q-27 -45 -71.5 -69t-100.5 -24t-104 20.5t-83 58t-54 89.5t-19 112
q0 28 7.5 71t34 87t62.5 69.5t74.5 37t79.5 11.5q57 0 102 -25t72 -70v85h140v-523q0 -56 -17 -105.5t-51.5 -86.5t-86.5 -57.5t-118 -20.5q-41 0 -85.5 9.5t-89.5 36t-72.5 69t-35.5 87.5zM373 605h-121l69 175h82z" />
    <glyph glyph-name="Hcircumflex" unicode="&#x124;" horiz-adv-x="759" 
d="M535 0v296h-311v-296h-140v702h140v-283h311v283h140v-702h-140zM447 745l-67 86l-67 -86h-121l102 173h172l102 -173h-121z" />
    <glyph glyph-name="hcircumflex" unicode="&#x125;" horiz-adv-x="662" 
d="M76 0v763h140v-288q25 43 68 67.5t96 24.5q43 0 81 -16t66 -46.5t43.5 -75.5t15.5 -100v-329h-140v309q0 64 -31.5 100t-83.5 36q-53 0 -84 -35.5t-31 -100.5v-309h-140zM342 800l-67 86l-67 -86h-121l102 173h172l102 -173h-121z" />
    <glyph glyph-name="Hbar" unicode="&#x126;" horiz-adv-x="759" 
d="M535 0v296h-311v-296h-140v513h-49v106h49v83h140v-83h311v83h140v-83h50v-106h-50v-513h-140zM535 419v94h-311v-94h311z" />
    <glyph glyph-name="hbar" unicode="&#x127;" horiz-adv-x="662" 
d="M76 0v611h-53v106h53v46h140v-46h138v-106h-138v-136q25 43 68 67.5t96 24.5q43 0 81 -16t66 -46.5t43.5 -75.5t15.5 -100v-329h-140v309q0 64 -31.5 100t-83.5 36q-53 0 -84 -35.5t-31 -100.5v-309h-140z" />
    <glyph glyph-name="Itilde" unicode="&#x128;" horiz-adv-x="308" 
d="M84 0v702h140v-702h-140zM223 861q15 0 25.5 13t11.5 38h89q-1 -70 -34.5 -112.5t-85.5 -42.5q-17 0 -34.5 5t-47.5 22.5t-42 20.5t-20 3q-15 0 -25 -13t-12 -38h-89q2 71 34.5 113t86.5 42q11 0 24 -2.5t24 -7.5t42.5 -23t52.5 -18z" />
    <glyph glyph-name="itilde" unicode="&#x129;" horiz-adv-x="292" 
d="M76 0v557h140v-557h-140zM215 716q15 0 25.5 13t11.5 38h89q-1 -70 -34.5 -112.5t-85.5 -42.5q-17 0 -34.5 5t-47.5 22.5t-42 20.5t-20 3q-15 0 -25 -13t-12 -38h-89q2 71 34.5 113t86.5 42q11 0 24 -2.5t24 -7.5t42.5 -23t52.5 -18z" />
    <glyph glyph-name="Imacron" unicode="&#x12a;" horiz-adv-x="308" 
d="M84 0v702h140v-702h-140zM-12 776v106h331v-106h-331z" />
    <glyph glyph-name="imacron" unicode="&#x12b;" horiz-adv-x="292" 
d="M76 0v557h140v-557h-140zM-20 631v106h331v-106h-331z" />
    <glyph glyph-name="Ibreve" unicode="&#x12c;" horiz-adv-x="308" 
d="M84 0v702h140v-702h-140zM310 890q0 -70 -42.5 -110t-113.5 -40t-113.5 40t-42.5 110v25h83q0 -36 17 -54.5t56 -18.5t56 18.5t17 54.5h83v-25z" />
    <glyph glyph-name="ibreve" unicode="&#x12d;" horiz-adv-x="292" 
d="M76 0v557h140v-557h-140zM302 745q0 -70 -42.5 -110t-113.5 -40t-113.5 40t-42.5 110v25h83q0 -36 17 -54.5t56 -18.5t56 18.5t17 54.5h83v-25z" />
    <glyph glyph-name="Iogonek" unicode="&#x12e;" horiz-adv-x="308" 
d="M88 -101q0 -16 11 -25.5t32 -9.5q28 0 53 11v-86q-30 -15 -82 -15q-61 0 -94.5 25t-33.5 71q0 65 83 127l27 20v685h140v-702h-39l-32 -20q-65 -42 -65 -81z" />
    <glyph glyph-name="iogonek" unicode="&#x12f;" horiz-adv-x="292" 
d="M146 606q-35 0 -60 25.5t-25 60.5t25 60.5t60 25.5t60.5 -25.5t25.5 -60.5t-25.5 -60.5t-60.5 -25.5zM94 -101q0 -16 11 -25.5t32 -9.5q28 0 53 11v-86q-30 -15 -82 -15q-61 0 -94.5 25t-33.5 71q0 65 83 127l13 10v550h140v-557h-25l-32 -20q-65 -42 -65 -81z" />
    <glyph glyph-name="Idotaccent" unicode="&#x130;" horiz-adv-x="308" 
d="M84 0v702h140v-702h-140zM154 751q-35 0 -60 25.5t-25 60.5t25 60.5t60 25.5t60.5 -25.5t25.5 -60.5t-25.5 -60.5t-60.5 -25.5z" />
    <glyph glyph-name="dotlessi" unicode="&#x131;" horiz-adv-x="292" 
d="M76 0v557h140v-557h-140z" />
    <glyph glyph-name="IJ" unicode="&#x132;" horiz-adv-x="845" 
d="M84 0v702h140v-702h-140zM627 207v372h-186v123h326v-495q0 -100 -61 -157.5t-156 -57.5q-34 0 -70.5 9.5t-72.5 37t-55 73t-20 95.5h141q4 -45 24.5 -67.5t52.5 -22.5q36 0 56.5 24t20.5 66z" />
    <glyph glyph-name="ij" unicode="&#x133;" horiz-adv-x="584" 
d="M76 0v557h140v-557h-140zM146 606q-35 0 -60 25.5t-25 60.5t25 60.5t60 25.5t60.5 -25.5t25.5 -60.5t-25.5 -60.5t-60.5 -25.5zM438 606q-35 0 -60 25.5t-25 60.5t25 60.5t60 25.5t60.5 -25.5t25.5 -60.5t-25.5 -60.5t-60.5 -25.5zM508 -226h-140v783h140v-783z" />
    <glyph glyph-name="Jcircumflex" unicode="&#x134;" horiz-adv-x="544" 
d="M327 207v372h-186v123h326v-495q0 -100 -61 -157.5t-156 -57.5q-34 0 -70.5 9.5t-72.5 37t-55 73t-20 95.5h141q4 -45 24.5 -67.5t52.5 -22.5q36 0 56.5 24t20.5 66zM381 745l-67 86l-67 -86h-121l102 173h172l102 -173h-121z" />
    <glyph glyph-name="jcircumflex" unicode="&#x135;" horiz-adv-x="292" 
d="M216 -226h-140v783h140v-783zM213 600l-67 86l-67 -86h-121l102 173h172l102 -173h-121z" />
    <glyph glyph-name="Kcommaaccent" unicode="&#x136;" horiz-adv-x="668" 
d="M84 0v702h140v-702h-140zM233 351l245 351h163l-247 -341l264 -361h-176zM284 -48h122l-69 -175h-82z" />
    <glyph glyph-name="kcommaaccent" unicode="&#x137;" horiz-adv-x="597" 
d="M76 0v763h140v-763h-140zM223 283l193 274h162l-198 -265l204 -292h-166zM249 -48h122l-69 -175h-82z" />
    <glyph glyph-name="Lacute" unicode="&#x139;" horiz-adv-x="528" 
d="M84 702h140v-579h276v-123h-416v702zM83 745l94 173h170l-143 -173h-121z" />
    <glyph glyph-name="lacute" unicode="&#x13a;" horiz-adv-x="293" 
d="M76 0v763h141v-763h-141zM67 800l94 173h170l-143 -173h-121z" />
    <glyph glyph-name="Lcommaaccent" unicode="&#x13b;" horiz-adv-x="528" 
d="M84 702h140v-579h276v-123h-416v702zM224 -48h122l-69 -175h-82z" />
    <glyph glyph-name="lcommaaccent" unicode="&#x13c;" horiz-adv-x="293" 
d="M76 0v763h141v-763h-141zM97 -48h122l-69 -175h-82z" />
    <glyph glyph-name="Lcaron" unicode="&#x13d;" horiz-adv-x="528" 
d="M84 702h140v-579h276v-123h-416v702zM328 756h126l-78 -229h-82z" />
    <glyph glyph-name="lcaron" unicode="&#x13e;" horiz-adv-x="374" 
d="M76 0v763h141v-763h-141zM291 756h126l-78 -229h-82z" />
    <glyph glyph-name="Ldot" unicode="&#x13f;" horiz-adv-x="528" 
d="M84 702h140v-579h276v-123h-416v702zM499 332q0 -33 -23.5 -57t-57.5 -24q-33 0 -56.5 24t-23.5 57t23.5 57t56.5 24q34 0 57.5 -24t23.5 -57z" />
    <glyph glyph-name="ldot" unicode="&#x140;" horiz-adv-x="368" 
d="M76 0v763h141v-763h-141zM411 332q0 -33 -23.5 -57t-57.5 -24q-33 0 -56.5 24t-23.5 57t23.5 57t56.5 24q34 0 57.5 -24t23.5 -57z" />
    <glyph glyph-name="Lslash" unicode="&#x141;" horiz-adv-x="528" 
d="M22 244v123l62 18v317h140v-275l147 42v-123l-147 -43v-180h276v-123h-416v261z" />
    <glyph glyph-name="lslash" unicode="&#x142;" horiz-adv-x="293" 
d="M4 240v123l72 26v374h141v-319l72 27v-123l-72 -27v-321h-141v266z" />
    <glyph glyph-name="Nacute" unicode="&#x143;" horiz-adv-x="764" 
d="M540 702h140v-702h-131l-325 462v-462h-140v702h140l316 -459v459zM293 745l94 173h170l-143 -173h-121z" />
    <glyph glyph-name="nacute" unicode="&#x144;" horiz-adv-x="665" 
d="M76 0v557h140v-82q25 43 68.5 67.5t97.5 24.5q43 0 81 -16t66.5 -46.5t44 -75.5t15.5 -100v-329h-140v309q0 32 -10 63.5t-38.5 52t-67.5 20.5q-25 0 -50.5 -10.5t-40.5 -32t-20.5 -45.5t-5.5 -48v-309h-140zM244 600l94 173h170l-143 -173h-121z" />
    <glyph glyph-name="Ncommaaccent" unicode="&#x145;" horiz-adv-x="764" 
d="M540 702h140v-702h-131l-325 462v-462h-140v702h140l316 -459v459zM327 -48h122l-69 -175h-82z" />
    <glyph glyph-name="ncommaaccent" unicode="&#x146;" horiz-adv-x="665" 
d="M76 0v557h140v-82q25 43 68.5 67.5t97.5 24.5q43 0 81 -16t66.5 -46.5t44 -75.5t15.5 -100v-329h-140v309q0 32 -10 63.5t-38.5 52t-67.5 20.5q-25 0 -50.5 -10.5t-40.5 -32t-20.5 -45.5t-5.5 -48v-309h-140zM284 -48h122l-69 -175h-82z" />
    <glyph glyph-name="Ncaron" unicode="&#x147;" horiz-adv-x="764" 
d="M540 702h140v-702h-131l-325 462v-462h-140v702h140l316 -459v459zM315 918l67 -86l67 86h121l-102 -173h-172l-102 173h121z" />
    <glyph glyph-name="ncaron" unicode="&#x148;" horiz-adv-x="665" 
d="M76 0v557h140v-82q25 43 68.5 67.5t97.5 24.5q43 0 81 -16t66.5 -46.5t44 -75.5t15.5 -100v-329h-140v309q0 32 -10 63.5t-38.5 52t-67.5 20.5q-25 0 -50.5 -10.5t-40.5 -32t-20.5 -45.5t-5.5 -48v-309h-140zM266 773l67 -86l67 86h121l-102 -173h-172l-102 173h121z" />
    <glyph glyph-name="Omacron" unicode="&#x14c;" horiz-adv-x="796" 
d="M40 351q0 77 27.5 144t77 115.5t115.5 75t138 26.5q73 0 139 -26.5t115 -75t76.5 -115.5t27.5 -144t-27.5 -144t-77 -115.5t-115 -75t-138.5 -26.5q-72 0 -138 26.5t-115.5 75t-77 115.5t-27.5 144zM612 351q0 105 -59 168.5t-155 63.5q-47 0 -86.5 -16.5t-68.5 -47
t-44.5 -73.5t-15.5 -95q0 -104 60 -167.5t155 -63.5t154.5 63.5t59.5 167.5zM232 776v106h331v-106h-331z" />
    <glyph glyph-name="omacron" unicode="&#x14d;" horiz-adv-x="662" 
d="M334 567q60 0 113 -21t92 -60t60.5 -92.5t21.5 -114.5t-22 -114.5t-61.5 -92.5t-93 -60.5t-113.5 -21.5q-61 0 -114.5 21.5t-92.5 60.5t-61 93t-22 115q0 45 15 94t46 86.5t66.5 60t78 34.5t87.5 12zM332 446q-63 0 -104.5 -46t-41.5 -121q0 -76 41 -122t104 -46t104 46
t41 122t-41 121.5t-103 45.5zM166 631v106h331v-106h-331z" />
    <glyph glyph-name="Obreve" unicode="&#x14e;" horiz-adv-x="796" 
d="M40 351q0 77 27.5 144t77 115.5t115.5 75t138 26.5q73 0 139 -26.5t115 -75t76.5 -115.5t27.5 -144t-27.5 -144t-77 -115.5t-115 -75t-138.5 -26.5q-72 0 -138 26.5t-115.5 75t-77 115.5t-27.5 144zM612 351q0 105 -59 168.5t-155 63.5q-47 0 -86.5 -16.5t-68.5 -47
t-44.5 -73.5t-15.5 -95q0 -104 60 -167.5t155 -63.5t154.5 63.5t59.5 167.5zM554 890q0 -70 -42.5 -110t-113.5 -40t-113.5 40t-42.5 110v25h83q0 -36 17 -54.5t56 -18.5t56 18.5t17 54.5h83v-25z" />
    <glyph glyph-name="obreve" unicode="&#x14f;" horiz-adv-x="662" 
d="M334 567q60 0 113 -21t92 -60t60.5 -92.5t21.5 -114.5t-22 -114.5t-61.5 -92.5t-93 -60.5t-113.5 -21.5q-61 0 -114.5 21.5t-92.5 60.5t-61 93t-22 115q0 45 15 94t46 86.5t66.5 60t78 34.5t87.5 12zM332 446q-63 0 -104.5 -46t-41.5 -121q0 -76 41 -122t104 -46t104 46
t41 122t-41 121.5t-103 45.5zM487 745q0 -70 -42.5 -110t-113.5 -40t-113.5 40t-42.5 110v25h83q0 -36 17 -54.5t56 -18.5t56 18.5t17 54.5h83v-25z" />
    <glyph glyph-name="Ohungarumlaut" unicode="&#x150;" horiz-adv-x="796" 
d="M40 351q0 77 27.5 144t77 115.5t115.5 75t138 26.5q73 0 139 -26.5t115 -75t76.5 -115.5t27.5 -144t-27.5 -144t-77 -115.5t-115 -75t-138.5 -26.5q-72 0 -138 26.5t-115.5 75t-77 115.5t-27.5 144zM612 351q0 105 -59 168.5t-155 63.5q-47 0 -86.5 -16.5t-68.5 -47
t-44.5 -73.5t-15.5 -95q0 -104 60 -167.5t155 -63.5t154.5 63.5t59.5 167.5zM221 745l94 173h163l-143 -173h-114zM418 745l94 173h163l-143 -173h-114z" />
    <glyph glyph-name="ohungarumlaut" unicode="&#x151;" horiz-adv-x="662" 
d="M334 567q60 0 113 -21t92 -60t60.5 -92.5t21.5 -114.5t-22 -114.5t-61.5 -92.5t-93 -60.5t-113.5 -21.5q-61 0 -114.5 21.5t-92.5 60.5t-61 93t-22 115q0 45 15 94t46 86.5t66.5 60t78 34.5t87.5 12zM332 446q-63 0 -104.5 -46t-41.5 -121q0 -76 41 -122t104 -46t104 46
t41 122t-41 121.5t-103 45.5zM154 600l94 173h163l-143 -173h-114zM351 600l94 173h163l-143 -173h-114z" />
    <glyph glyph-name="OE" unicode="&#x152;" horiz-adv-x="960" 
d="M403 123h79v456h-79q-48 0 -88.5 -15.5t-70 -45.5t-45.5 -72.5t-16 -94.5q0 -104 61 -166t159 -62zM907 702v-123h-285v-159h255v-123h-255v-174h285v-123h-504q-74 0 -140.5 25.5t-116.5 72.5t-78 112t-28 141t28 141.5t78 112t116.5 72t140.5 25.5h504z" />
    <glyph glyph-name="oe" unicode="&#x153;" horiz-adv-x="1064" 
d="M333 446q-63 0 -105 -46t-42 -121q0 -76 41.5 -122t104.5 -46q62 0 104 46t42 122q0 75 -41 121t-104 46zM546 88q-36 -46 -93 -72t-122 -26q-61 0 -114.5 21.5t-92.5 60.5t-61 93t-22 115q0 45 15 94t46 86.5t66.5 60t78 34.5t87.5 12q48 0 92 -14.5t74 -37t48 -43.5
q37 45 92 70t119 25q56 0 105 -19t85 -55t56 -87.5t20 -113.5q0 -15 -4 -51h-402q4 -29 19 -60.5t46.5 -52t69.5 -20.5q31 0 57.5 12t40 32.5t17.5 41.5h148q-21 -95 -91 -149.5t-172 -54.5q-63 0 -117.5 26t-90.5 72zM754 449q-50 0 -85.5 -31.5t-47.5 -86.5h260
q-2 26 -16.5 54t-45 46t-65.5 18z" />
    <glyph glyph-name="Racute" unicode="&#x154;" horiz-adv-x="646" 
d="M224 586v-200h114q53 0 82 27.5t29 72.5t-28.5 72.5t-79.5 27.5h-117zM474 0l-156 270h-94v-270h-140v702h257q60 0 108 -17t80 -47.5t48 -70t16 -83.5q0 -67 -35.5 -118t-99.5 -78l178 -288h-162zM234 745l94 173h170l-143 -173h-121z" />
    <glyph glyph-name="racute" unicode="&#x155;" horiz-adv-x="412" 
d="M216 281v-281h-140v557h140v-85q22 44 55 69.5t72 25.5q32 0 46 -14v-150q-31 18 -64 18q-50 0 -79.5 -33.5t-29.5 -106.5zM113 600l94 173h170l-143 -173h-121z" />
    <glyph glyph-name="Rcommaaccent" unicode="&#x156;" horiz-adv-x="646" 
d="M224 586v-200h114q53 0 82 27.5t29 72.5t-28.5 72.5t-79.5 27.5h-117zM474 0l-156 270h-94v-270h-140v702h257q60 0 108 -17t80 -47.5t48 -70t16 -83.5q0 -67 -35.5 -118t-99.5 -78l178 -288h-162zM274 -48h122l-69 -175h-82z" />
    <glyph glyph-name="rcommaaccent" unicode="&#x157;" horiz-adv-x="412" 
d="M216 281v-281h-140v557h140v-85q22 44 55 69.5t72 25.5q32 0 46 -14v-150q-31 18 -64 18q-50 0 -79.5 -33.5t-29.5 -106.5zM103 -48h122l-69 -175h-82z" />
    <glyph glyph-name="Rcaron" unicode="&#x158;" horiz-adv-x="646" 
d="M224 586v-200h114q53 0 82 27.5t29 72.5t-28.5 72.5t-79.5 27.5h-117zM474 0l-156 270h-94v-270h-140v702h257q60 0 108 -17t80 -47.5t48 -70t16 -83.5q0 -67 -35.5 -118t-99.5 -78l178 -288h-162zM256 918l67 -86l67 86h121l-102 -173h-172l-102 173h121z" />
    <glyph glyph-name="rcaron" unicode="&#x159;" horiz-adv-x="412" 
d="M216 281v-281h-140v557h140v-85q22 44 55 69.5t72 25.5q32 0 46 -14v-150q-31 18 -64 18q-50 0 -79.5 -33.5t-29.5 -106.5zM136 773l67 -86l67 86h121l-102 -173h-172l-102 173h121z" />
    <glyph glyph-name="Sacute" unicode="&#x15a;" horiz-adv-x="611" 
d="M194 518q0 -18 10.5 -34t36.5 -28.5t110 -33t116.5 -36.5t51.5 -31t32 -34t21.5 -45t8.5 -62q0 -49 -19.5 -91t-54.5 -71.5t-84 -45.5t-106 -16q-58 0 -108 16t-88 47.5t-61.5 77.5t-28.5 103h148q8 -62 43.5 -96.5t93.5 -34.5q41 0 70.5 14.5t40.5 36t11 40.5
q0 23 -10.5 43t-38.5 36t-116 38.5t-121.5 40t-52.5 36t-30.5 44t-14 49t-2.5 32.5q0 92 67 145t179 53q55 0 103 -16t84 -47t57.5 -76.5t25.5 -101.5h-148q-5 43 -25 74t-48 42.5t-53 11.5q-46 0 -73 -21.5t-27 -58.5zM214 745l94 173h170l-143 -173h-121z" />
    <glyph glyph-name="sacute" unicode="&#x15b;" horiz-adv-x="544" 
d="M189 406q0 -19 17 -35.5t102 -36t114.5 -35.5t47.5 -34.5t27 -45t9 -54.5q0 -78 -60.5 -126.5t-161.5 -48.5q-48 0 -91.5 13t-77 39t-53.5 64.5t-24 86.5h142q2 -21 13 -43t36 -35.5t58 -13.5q36 0 57.5 14.5t21.5 38.5t-21.5 41t-102 36t-113.5 37t-49 37.5t-23.5 42.5
t-7.5 51q0 51 29 89.5t75.5 58.5t107.5 20q98 0 159.5 -52.5t71.5 -149.5h-137q-6 41 -31.5 66t-62.5 25q-34 0 -53 -14t-19 -36zM183 600l94 173h170l-143 -173h-121z" />
    <glyph glyph-name="Scircumflex" unicode="&#x15c;" horiz-adv-x="611" 
d="M194 518q0 -18 10.5 -34t36.5 -28.5t110 -33t116.5 -36.5t51.5 -31t32 -34t21.5 -45t8.5 -62q0 -49 -19.5 -91t-54.5 -71.5t-84 -45.5t-106 -16q-58 0 -108 16t-88 47.5t-61.5 77.5t-28.5 103h148q8 -62 43.5 -96.5t93.5 -34.5q41 0 70.5 14.5t40.5 36t11 40.5
q0 23 -10.5 43t-38.5 36t-116 38.5t-121.5 40t-52.5 36t-30.5 44t-14 49t-2.5 32.5q0 92 67 145t179 53q55 0 103 -16t84 -47t57.5 -76.5t25.5 -101.5h-148q-5 43 -25 74t-48 42.5t-53 11.5q-46 0 -73 -21.5t-27 -58.5zM370 745l-67 86l-67 -86h-121l102 173h172l102 -173
h-121z" />
    <glyph glyph-name="scircumflex" unicode="&#x15d;" horiz-adv-x="544" 
d="M189 406q0 -19 17 -35.5t102 -36t114.5 -35.5t47.5 -34.5t27 -45t9 -54.5q0 -78 -60.5 -126.5t-161.5 -48.5q-48 0 -91.5 13t-77 39t-53.5 64.5t-24 86.5h142q2 -21 13 -43t36 -35.5t58 -13.5q36 0 57.5 14.5t21.5 38.5t-21.5 41t-102 36t-113.5 37t-49 37.5t-23.5 42.5
t-7.5 51q0 51 29 89.5t75.5 58.5t107.5 20q98 0 159.5 -52.5t71.5 -149.5h-137q-6 41 -31.5 66t-62.5 25q-34 0 -53 -14t-19 -36zM339 600l-67 86l-67 -86h-121l102 173h172l102 -173h-121z" />
    <glyph glyph-name="Scedilla" unicode="&#x15e;" horiz-adv-x="611" 
d="M194 518q0 -18 10.5 -34t36.5 -28.5t110 -33t116.5 -36.5t51.5 -31t32 -34t21.5 -45t8.5 -62q0 -34 -11.5 -71t-39.5 -69t-74 -55t-110 -28v-33q54 0 82 -23.5t28 -60.5q0 -34 -19.5 -58.5t-49.5 -33t-57 -8.5q-52 0 -91 13v74q37 -11 65 -11q38 0 38 25q0 10 -8 18
t-40 8h-24v92q-101 12 -165 75t-74 166h148q8 -62 43.5 -96.5t93.5 -34.5q41 0 70.5 14.5t40.5 36t11 40.5q0 23 -10.5 43t-38.5 36t-116 38.5t-121.5 40t-52.5 36t-30.5 44t-14 49t-2.5 32.5q0 92 67 145t179 53q55 0 103 -16t84 -47t57.5 -76.5t25.5 -101.5h-148
q-5 43 -25 74t-48 42.5t-53 11.5q-46 0 -73 -21.5t-27 -58.5z" />
    <glyph glyph-name="scedilla" unicode="&#x15f;" horiz-adv-x="544" 
d="M189 406q0 -19 17 -35.5t102 -36t114.5 -35.5t47.5 -34.5t27 -45t9 -54.5q0 -36 -12 -63.5t-32.5 -49.5t-60 -40t-96.5 -21v-33q54 0 82 -23.5t28 -60.5q0 -46 -34 -73t-92 -27q-52 0 -91 13v74q37 -11 65 -11q39 0 39 25q0 14 -11.5 20t-36.5 6h-25v93
q-81 13 -132.5 64.5t-58.5 134.5h142q2 -21 13 -43t36 -35.5t58 -13.5q36 0 57.5 14.5t21.5 38.5t-21.5 41t-102 36t-113.5 37t-49 37.5t-23.5 42.5t-7.5 51q0 51 29 89.5t75.5 58.5t107.5 20q98 0 159.5 -52.5t71.5 -149.5h-137q-6 41 -31.5 66t-62.5 25q-34 0 -53 -14
t-19 -36z" />
    <glyph glyph-name="Scaron" unicode="&#x160;" horiz-adv-x="611" 
d="M194 518q0 -18 10.5 -34t36.5 -28.5t110 -33t116.5 -36.5t51.5 -31t32 -34t21.5 -45t8.5 -62q0 -49 -19.5 -91t-54.5 -71.5t-84 -45.5t-106 -16q-58 0 -108 16t-88 47.5t-61.5 77.5t-28.5 103h148q8 -62 43.5 -96.5t93.5 -34.5q41 0 70.5 14.5t40.5 36t11 40.5
q0 23 -10.5 43t-38.5 36t-116 38.5t-121.5 40t-52.5 36t-30.5 44t-14 49t-2.5 32.5q0 92 67 145t179 53q55 0 103 -16t84 -47t57.5 -76.5t25.5 -101.5h-148q-5 43 -25 74t-48 42.5t-53 11.5q-46 0 -73 -21.5t-27 -58.5zM236 918l67 -86l67 86h121l-102 -173h-172l-102 173
h121z" />
    <glyph glyph-name="scaron" unicode="&#x161;" horiz-adv-x="544" 
d="M189 406q0 -19 17 -35.5t102 -36t114.5 -35.5t47.5 -34.5t27 -45t9 -54.5q0 -78 -60.5 -126.5t-161.5 -48.5q-48 0 -91.5 13t-77 39t-53.5 64.5t-24 86.5h142q2 -21 13 -43t36 -35.5t58 -13.5q36 0 57.5 14.5t21.5 38.5t-21.5 41t-102 36t-113.5 37t-49 37.5t-23.5 42.5
t-7.5 51q0 51 29 89.5t75.5 58.5t107.5 20q98 0 159.5 -52.5t71.5 -149.5h-137q-6 41 -31.5 66t-62.5 25q-34 0 -53 -14t-19 -36zM205 773l67 -86l67 86h121l-102 -173h-172l-102 173h121z" />
    <glyph glyph-name="Tcommaaccent" unicode="&#x162;" horiz-adv-x="587" 
d="M23 579v123h541v-123h-201v-579h-32v-42q27 0 53.5 -8t41.5 -28.5t15 -47.5q0 -46 -34 -73t-92 -27q-51 0 -91 13v74q40 -11 65 -11q39 0 39 25q0 14 -11.5 20t-36.5 6h-24v99h-33v579h-200z" />
    <glyph glyph-name="tcommaaccent" unicode="&#x163;" horiz-adv-x="385" 
d="M87 158v285h-66v114h66v137h141v-137h125v-114h-125v-268q0 -33 13.5 -48.5t44.5 -15.5q15 0 34.5 5.5t33.5 14.5v-117q-19 -11 -47 -17.5t-56 -6.5h-7v-32q27 0 53.5 -8t41.5 -28.5t15 -47.5q0 -46 -34 -73t-92 -27q-51 0 -91 13v74q40 -11 65 -11q39 0 39 25
q0 14 -11.5 20t-36.5 6h-24v104q-40 17 -61 56t-21 97z" />
    <glyph glyph-name="Tcaron" unicode="&#x164;" horiz-adv-x="587" 
d="M23 579v123h541v-123h-201v-579h-140v579h-200zM228 918l67 -86l67 86h121l-102 -173h-172l-102 173h121z" />
    <glyph glyph-name="tcaron" unicode="&#x165;" horiz-adv-x="385" 
d="M87 158v285h-66v114h66v137h141v-137h125v-114h-125v-268q0 -33 13.5 -48.5t44.5 -15.5q15 0 34.5 5.5t33.5 14.5v-117q-19 -11 -47 -17.5t-56 -6.5q-81 0 -122.5 42.5t-41.5 125.5zM298 829h126l-78 -229h-82z" />
    <glyph glyph-name="Tbar" unicode="&#x166;" horiz-adv-x="587" 
d="M23 579v123h541v-123h-201v-174h105v-106h-105v-299h-140v299h-104v106h104v174h-200z" />
    <glyph glyph-name="tbar" unicode="&#x167;" horiz-adv-x="385" 
d="M87 158v86h-63v106h63v93h-66v114h66v137h141v-137h125v-114h-125v-93h114v-106h-114v-69q0 -33 13.5 -48.5t44.5 -15.5q15 0 34.5 5.5t33.5 14.5v-117q-19 -11 -47 -17.5t-56 -6.5q-81 0 -122.5 42.5t-41.5 125.5z" />
    <glyph glyph-name="Utilde" unicode="&#x168;" horiz-adv-x="718" 
d="M78 265v437h140v-437q0 -72 36.5 -109t103.5 -37q68 0 105 37t37 109v437h140v-437q0 -66 -23 -119t-63 -87t-91.5 -51.5t-106.5 -17.5q-56 0 -106.5 17t-89 51.5t-60.5 87t-22 119.5zM428 861q15 0 25.5 13t11.5 38h89q-1 -70 -34.5 -112.5t-85.5 -42.5q-17 0 -34.5 5
t-47.5 22.5t-42 20.5t-20 3q-15 0 -25 -13t-12 -38h-89q2 71 34.5 113t86.5 42q11 0 24 -2.5t24 -7.5t42.5 -23t52.5 -18z" />
    <glyph glyph-name="utilde" unicode="&#x169;" horiz-adv-x="652" 
d="M576 557v-557h-140v83q-25 -44 -67.5 -68.5t-96.5 -24.5q-89 0 -147.5 64t-58.5 174v329h140v-309q0 -32 10 -63.5t38 -52t66 -20.5q53 0 84.5 35.5t31.5 100.5v309h140zM395 716q15 0 25.5 13t11.5 38h89q-1 -70 -34.5 -112.5t-85.5 -42.5q-17 0 -34.5 5t-47.5 22.5
t-42 20.5t-20 3q-15 0 -25 -13t-12 -38h-89q2 71 34.5 113t86.5 42q11 0 24 -2.5t24 -7.5t42.5 -23t52.5 -18z" />
    <glyph glyph-name="Umacron" unicode="&#x16a;" horiz-adv-x="718" 
d="M78 265v437h140v-437q0 -72 36.5 -109t103.5 -37q68 0 105 37t37 109v437h140v-437q0 -66 -23 -119t-63 -87t-91.5 -51.5t-106.5 -17.5q-56 0 -106.5 17t-89 51.5t-60.5 87t-22 119.5zM193 776v106h331v-106h-331z" />
    <glyph glyph-name="umacron" unicode="&#x16b;" horiz-adv-x="652" 
d="M576 557v-557h-140v83q-25 -44 -67.5 -68.5t-96.5 -24.5q-89 0 -147.5 64t-58.5 174v329h140v-309q0 -32 10 -63.5t38 -52t66 -20.5q53 0 84.5 35.5t31.5 100.5v309h140zM160 631v106h331v-106h-331z" />
    <glyph glyph-name="Ubreve" unicode="&#x16c;" horiz-adv-x="718" 
d="M78 265v437h140v-437q0 -72 36.5 -109t103.5 -37q68 0 105 37t37 109v437h140v-437q0 -66 -23 -119t-63 -87t-91.5 -51.5t-106.5 -17.5q-56 0 -106.5 17t-89 51.5t-60.5 87t-22 119.5zM515 890q0 -70 -42.5 -110t-113.5 -40t-113.5 40t-42.5 110v25h83q0 -36 17 -54.5
t56 -18.5t56 18.5t17 54.5h83v-25z" />
    <glyph glyph-name="ubreve" unicode="&#x16d;" horiz-adv-x="652" 
d="M576 557v-557h-140v83q-25 -44 -67.5 -68.5t-96.5 -24.5q-89 0 -147.5 64t-58.5 174v329h140v-309q0 -32 10 -63.5t38 -52t66 -20.5q53 0 84.5 35.5t31.5 100.5v309h140zM482 745q0 -70 -42.5 -110t-113.5 -40t-113.5 40t-42.5 110v25h83q0 -36 17 -54.5t56 -18.5
t56 18.5t17 54.5h83v-25z" />
    <glyph glyph-name="Uring" unicode="&#x16e;" horiz-adv-x="718" 
d="M78 265v437h140v-437q0 -72 36.5 -109t103.5 -37q68 0 105 37t37 109v437h140v-437q0 -66 -23 -119t-63 -87t-91.5 -51.5t-106.5 -17.5q-56 0 -106.5 17t-89 51.5t-60.5 87t-22 119.5zM245 843q0 23 11 49t39.5 44t64.5 18q50 0 82 -31t32 -80q0 -23 -11 -49t-39 -44
t-64 -18q-23 0 -50 10.5t-46 38t-19 62.5zM399 844q0 17 -11 29t-28 12t-28.5 -12t-11.5 -29q0 -18 11 -30t29 -12q17 0 28 12t11 30z" />
    <glyph glyph-name="uring" unicode="&#x16f;" horiz-adv-x="652" 
d="M576 557v-557h-140v83q-25 -44 -67.5 -68.5t-96.5 -24.5q-89 0 -147.5 64t-58.5 174v329h140v-309q0 -32 10 -63.5t38 -52t66 -20.5q53 0 84.5 35.5t31.5 100.5v309h140zM212 698q0 23 11 49t39.5 44t64.5 18q50 0 82 -31t32 -80q0 -23 -11 -49t-39 -44t-64 -18
q-23 0 -50 10.5t-46 38t-19 62.5zM366 699q0 17 -11 29t-28 12t-28.5 -12t-11.5 -29q0 -18 11 -30t29 -12q17 0 28 12t11 30z" />
    <glyph glyph-name="Uhungarumlaut" unicode="&#x170;" horiz-adv-x="718" 
d="M78 265v437h140v-437q0 -72 36.5 -109t103.5 -37q68 0 105 37t37 109v437h140v-437q0 -66 -23 -119t-63 -87t-91.5 -51.5t-106.5 -17.5q-56 0 -106.5 17t-89 51.5t-60.5 87t-22 119.5zM182 745l94 173h163l-143 -173h-114zM379 745l94 173h163l-143 -173h-114z" />
    <glyph glyph-name="uhungarumlaut" unicode="&#x171;" horiz-adv-x="652" 
d="M576 557v-557h-140v83q-25 -44 -67.5 -68.5t-96.5 -24.5q-89 0 -147.5 64t-58.5 174v329h140v-309q0 -32 10 -63.5t38 -52t66 -20.5q53 0 84.5 35.5t31.5 100.5v309h140zM149 600l94 173h163l-143 -173h-114zM346 600l94 173h163l-143 -173h-114z" />
    <glyph glyph-name="Uogonek" unicode="&#x172;" horiz-adv-x="718" 
d="M78 265v437h140v-437q0 -72 36.5 -109t103.5 -37q68 0 105 37t37 109v437h140v-437q0 -57 -17.5 -104.5t-48 -81t-71.5 -55t-87 -29.5l-24 -15q-64 -41 -64 -81q0 -16 11 -25.5t32 -9.5q28 0 53 11v-86q-31 -15 -83 -15q-61 0 -94 25t-33 71q0 66 80 125q-70 13 -118 51
t-73 93t-25 126z" />
    <glyph glyph-name="uogonek" unicode="&#x173;" horiz-adv-x="652" 
d="M576 557v-557h-28l-32 -20q-65 -42 -65 -81q0 -16 11 -25.5t32 -9.5q28 0 53 11v-86q-30 -15 -82 -15q-61 0 -94.5 25t-33.5 71q0 65 83 127l16 12v74q-25 -44 -67.5 -68.5t-96.5 -24.5q-89 0 -147.5 64t-58.5 174v329h140v-309q0 -32 10 -63.5t38 -52t66 -20.5
q53 0 84.5 35.5t31.5 100.5v309h140z" />
    <glyph glyph-name="Wcircumflex" unicode="&#x174;" horiz-adv-x="1019" 
d="M1008 702l-202 -702h-158l-138 491l-137 -491h-158l-204 702h151l138 -536l138 536h158l137 -532l124 532h151zM577 745l-67 86l-67 -86h-121l102 173h172l102 -173h-121z" />
    <glyph glyph-name="wcircumflex" unicode="&#x175;" horiz-adv-x="827" 
d="M506 0l-93 369l-94 -369h-143l-166 557h146l95 -405l101 405h128l104 -407l95 407h138l-168 -557h-143zM480 600l-67 86l-67 -86h-121l102 173h172l102 -173h-121z" />
    <glyph glyph-name="Ycircumflex" unicode="&#x176;" horiz-adv-x="640" 
d="M250 254l-242 448h156l162 -318l157 318h149l-242 -448v-254h-140v254zM387 745l-67 86l-67 -86h-121l102 173h172l102 -173h-121z" />
    <glyph glyph-name="ycircumflex" unicode="&#x177;" horiz-adv-x="612" 
d="M139 -226l101 242l-232 541h153l151 -367l153 367h139l-327 -783h-138zM373 600l-67 86l-67 -86h-121l102 173h172l102 -173h-121z" />
    <glyph glyph-name="Ydieresis" unicode="&#x178;" horiz-adv-x="640" 
d="M250 254l-242 448h156l162 -318l157 318h149l-242 -448v-254h-140v254zM214 751q-35 0 -60 25.5t-25 60.5t25 60.5t60 25.5t60.5 -25.5t25.5 -60.5t-25.5 -60.5t-60.5 -25.5zM425 751q-35 0 -60 25t-25 61t25 61t60 25t60 -25t25 -61t-25 -61t-60 -25z" />
    <glyph glyph-name="Zacute" unicode="&#x179;" horiz-adv-x="583" 
d="M532 702v-108l-312 -471h315v-123h-486v106l312 473h-309v123h480zM203 745l94 173h170l-143 -173h-121z" />
    <glyph glyph-name="zacute" unicode="&#x17a;" horiz-adv-x="536" 
d="M493 557v-115l-282 -326h285v-116h-454v116l284 327h-281v114h448zM172 600l94 173h170l-143 -173h-121z" />
    <glyph glyph-name="Zdotaccent" unicode="&#x17b;" horiz-adv-x="583" 
d="M532 702v-108l-312 -471h315v-123h-486v106l312 473h-309v123h480zM291 751q-35 0 -60 25.5t-25 60.5t25 60.5t60 25.5t60.5 -25.5t25.5 -60.5t-25.5 -60.5t-60.5 -25.5z" />
    <glyph glyph-name="zdotaccent" unicode="&#x17c;" horiz-adv-x="536" 
d="M493 557v-115l-282 -326h285v-116h-454v116l284 327h-281v114h448zM261 606q-35 0 -60 25.5t-25 60.5t25 60.5t60 25.5t60.5 -25.5t25.5 -60.5t-25.5 -60.5t-60.5 -25.5z" />
    <glyph glyph-name="Zcaron" unicode="&#x17d;" horiz-adv-x="583" 
d="M532 702v-108l-312 -471h315v-123h-486v106l312 473h-309v123h480zM225 918l67 -86l67 86h121l-102 -173h-172l-102 173h121z" />
    <glyph glyph-name="zcaron" unicode="&#x17e;" horiz-adv-x="536" 
d="M493 557v-115l-282 -326h285v-116h-454v116l284 327h-281v114h448zM194 773l67 -86l67 86h121l-102 -173h-172l-102 173h121z" />
    <glyph glyph-name="florin" unicode="&#x192;" horiz-adv-x="420" 
d="M95 443l12 114h60l3 21q13 99 64 145.5t155 46.5h21l-13 -119h-16q-34 0 -50 -17.5t-21 -55.5l-3 -21h83l-12 -114h-86l-54 -410q-8 -61 -31 -99.5t-64 -58.5t-108 -20h-25l13 119h22q19 0 33.5 11t19.5 48l54 410h-57z" />
    <glyph glyph-name="Scommaaccent" unicode="&#x218;" horiz-adv-x="611" 
d="M194 518q0 -18 10.5 -34t36.5 -28.5t110 -33t116.5 -36.5t51.5 -31t32 -34t21.5 -45t8.5 -62q0 -49 -19.5 -91t-54.5 -71.5t-84 -45.5t-106 -16q-58 0 -108 16t-88 47.5t-61.5 77.5t-28.5 103h148q8 -62 43.5 -96.5t93.5 -34.5q41 0 70.5 14.5t40.5 36t11 40.5
q0 23 -10.5 43t-38.5 36t-116 38.5t-121.5 40t-52.5 36t-30.5 44t-14 49t-2.5 32.5q0 92 67 145t179 53q55 0 103 -16t84 -47t57.5 -76.5t25.5 -101.5h-148q-5 43 -25 74t-48 42.5t-53 11.5q-46 0 -73 -21.5t-27 -58.5zM254 -48h122l-69 -175h-82z" />
    <glyph glyph-name="scommaaccent" unicode="&#x219;" horiz-adv-x="544" 
d="M189 406q0 -19 17 -35.5t102 -36t114.5 -35.5t47.5 -34.5t27 -45t9 -54.5q0 -78 -60.5 -126.5t-161.5 -48.5q-48 0 -91.5 13t-77 39t-53.5 64.5t-24 86.5h142q2 -21 13 -43t36 -35.5t58 -13.5q36 0 57.5 14.5t21.5 38.5t-21.5 41t-102 36t-113.5 37t-49 37.5t-23.5 42.5
t-7.5 51q0 51 29 89.5t75.5 58.5t107.5 20q98 0 159.5 -52.5t71.5 -149.5h-137q-6 41 -31.5 66t-62.5 25q-34 0 -53 -14t-19 -36zM223 -48h122l-69 -175h-82z" />
    <glyph glyph-name="uni021A" unicode="&#x21a;" horiz-adv-x="587" 
d="M23 579v123h541v-123h-201v-579h-140v579h-200zM239 -48h122l-69 -175h-82z" />
    <glyph glyph-name="uni021B" unicode="&#x21b;" horiz-adv-x="385" 
d="M87 158v285h-66v114h66v137h141v-137h125v-114h-125v-268q0 -33 13.5 -48.5t44.5 -15.5q15 0 34.5 5.5t33.5 14.5v-117q-19 -11 -47 -17.5t-56 -6.5q-81 0 -122.5 42.5t-41.5 125.5zM143 -48h122l-69 -175h-82z" />
    <glyph glyph-name="uni0237" unicode="&#x237;" horiz-adv-x="292" 
d="M216 -226h-140v783h140v-783z" />
    <glyph glyph-name="circumflex" unicode="&#x2c6;" horiz-adv-x="402" 
d="M268 600l-67 86l-67 -86h-121l102 173h172l102 -173h-121z" />
    <glyph glyph-name="caron" unicode="&#x2c7;" horiz-adv-x="402" 
d="M134 773l67 -86l67 86h121l-102 -173h-172l-102 173h121z" />
    <glyph glyph-name="breve" unicode="&#x2d8;" horiz-adv-x="338" 
d="M325 745q0 -70 -42.5 -110t-113.5 -40t-113.5 40t-42.5 110v25h83q0 -36 17 -54.5t56 -18.5t56 18.5t17 54.5h83v-25z" />
    <glyph glyph-name="dotaccent" unicode="&#x2d9;" horiz-adv-x="197" 
d="M98 606q-35 0 -60 25.5t-25 60.5t25 60.5t60 25.5t60.5 -25.5t25.5 -60.5t-25.5 -60.5t-60.5 -25.5z" />
    <glyph glyph-name="ring" unicode="&#x2da;" horiz-adv-x="235" 
d="M3 698q0 23 11 49t39.5 44t64.5 18q50 0 82 -31t32 -80q0 -23 -11 -49t-39 -44t-64 -18q-23 0 -50 10.5t-46 38t-19 62.5zM157 699q0 17 -11 29t-28 12t-28.5 -12t-11.5 -29q0 -18 11 -30t29 -12q17 0 28 12t11 30z" />
    <glyph glyph-name="ogonek" unicode="&#x2db;" horiz-adv-x="240" 
d="M127 -101q0 -16 11 -25.5t32 -9.5q28 0 53 11v-86q-30 -15 -83 -15q-61 0 -94 25t-33 71q0 66 82 127l46 34l83 -31l-33 -20q-64 -41 -64 -81z" />
    <glyph glyph-name="tilde" unicode="&#x2dc;" horiz-adv-x="422" 
d="M280 716q15 0 25.5 13t11.5 38h89q-1 -70 -34.5 -112.5t-85.5 -42.5q-17 0 -34.5 5t-47.5 22.5t-42 20.5t-20 3q-15 0 -25 -13t-12 -38h-89q2 71 34.5 113t86.5 42q11 0 24 -2.5t24 -7.5t42.5 -23t52.5 -18z" />
    <glyph glyph-name="hungarumlaut" unicode="&#x2dd;" horiz-adv-x="480" 
d="M63 600l94 173h163l-143 -173h-114zM260 600l94 173h163l-143 -173h-114z" />
    <glyph glyph-name="uni0326" unicode="&#x326;" horiz-adv-x="0" 
d="M-50 -48h122l-69 -175h-82z" />
    <glyph glyph-name="pi" unicode="&#x3c0;" horiz-adv-x="665" 
d="M251 0h-141l21 434h-98v123h594v-123h-107l16 -256q2 -33 16 -47.5t48 -14.5h25v-116h-76q-72 0 -109 39.5t-42 119.5l-19 275h-107z" />
    <glyph glyph-name="Wgrave" unicode="&#x1e80;" horiz-adv-x="1019" 
d="M1008 702l-202 -702h-158l-138 491l-137 -491h-158l-204 702h151l138 -536l138 536h158l137 -532l124 532h151zM599 745h-121l-143 173h171z" />
    <glyph glyph-name="wgrave" unicode="&#x1e81;" horiz-adv-x="827" 
d="M506 0l-93 369l-94 -369h-143l-166 557h146l95 -405l101 405h128l104 -407l95 407h138l-168 -557h-143zM503 600h-121l-143 173h171z" />
    <glyph glyph-name="Wacute" unicode="&#x1e82;" horiz-adv-x="1019" 
d="M1008 702l-202 -702h-158l-138 491l-137 -491h-158l-204 702h151l138 -536l138 536h158l137 -532l124 532h151zM420 745l94 173h170l-143 -173h-121z" />
    <glyph glyph-name="wacute" unicode="&#x1e83;" horiz-adv-x="827" 
d="M506 0l-93 369l-94 -369h-143l-166 557h146l95 -405l101 405h128l104 -407l95 407h138l-168 -557h-143zM324 600l94 173h170l-143 -173h-121z" />
    <glyph glyph-name="Wdieresis" unicode="&#x1e84;" horiz-adv-x="1019" 
d="M1008 702l-202 -702h-158l-138 491l-137 -491h-158l-204 702h151l138 -536l138 536h158l137 -532l124 532h151zM404 751q-35 0 -60 25.5t-25 60.5t25 60.5t60 25.5t60.5 -25.5t25.5 -60.5t-25.5 -60.5t-60.5 -25.5zM615 751q-35 0 -60 25t-25 61t25 61t60 25t60 -25
t25 -61t-25 -61t-60 -25z" />
    <glyph glyph-name="wdieresis" unicode="&#x1e85;" horiz-adv-x="827" 
d="M506 0l-93 369l-94 -369h-143l-166 557h146l95 -405l101 405h128l104 -407l95 407h138l-168 -557h-143zM308 606q-35 0 -60 25.5t-25 60.5t25 60.5t60 25.5t60.5 -25.5t25.5 -60.5t-25.5 -60.5t-60.5 -25.5zM519 606q-35 0 -60 25t-25 61t25 61t60 25t60 -25t25 -61
t-25 -61t-60 -25z" />
    <glyph glyph-name="Ygrave" unicode="&#x1ef2;" horiz-adv-x="640" 
d="M250 254l-242 448h156l162 -318l157 318h149l-242 -448v-254h-140v254zM410 745h-121l-143 173h171z" />
    <glyph glyph-name="ygrave" unicode="&#x1ef3;" horiz-adv-x="612" 
d="M139 -226l101 242l-232 541h153l151 -367l153 367h139l-327 -783h-138zM396 600h-121l-143 173h171z" />
    <glyph glyph-name="endash" unicode="&#x2013;" horiz-adv-x="500" 
d="M40 205v116h420v-116h-420z" />
    <glyph glyph-name="emdash" unicode="&#x2014;" horiz-adv-x="1000" 
d="M40 205v116h920v-116h-920z" />
    <glyph glyph-name="quoteleft" unicode="&#x2018;" horiz-adv-x="230" 
d="M172 452h-145l90 250h93z" />
    <glyph glyph-name="quoteright" unicode="&#x2019;" horiz-adv-x="230" 
d="M78 702h145l-90 -250h-92z" />
    <glyph glyph-name="quotesinglbase" unicode="&#x201a;" horiz-adv-x="230" 
d="M68 107h145l-90 -250h-92z" />
    <glyph glyph-name="quotedblleft" unicode="&#x201c;" horiz-adv-x="429" 
d="M172 452h-145l90 250h93zM371 452h-145l90 250h92z" />
    <glyph glyph-name="quotedblright" unicode="&#x201d;" horiz-adv-x="432" 
d="M78 702h145l-90 -250h-92zM280 702h145l-90 -250h-92z" />
    <glyph glyph-name="quotedblbase" unicode="&#x201e;" horiz-adv-x="432" 
d="M68 107h145l-90 -250h-92zM270 107h145l-90 -250h-92z" />
    <glyph glyph-name="dagger" unicode="&#x2020;" horiz-adv-x="588" 
d="M349 520l203 12v-109l-203 12l15 -661h-140l14 661l-202 -12v109l202 -12l-14 243h140z" />
    <glyph glyph-name="daggerdbl" unicode="&#x2021;" horiz-adv-x="588" 
d="M238 103l-14 166l14 166l-202 -12v109l202 -12l-14 243h140l-15 -243l203 12v-109l-203 12l15 -166l-15 -166l203 12v-109l-203 11l15 -243h-140l14 243l-202 -11v109z" />
    <glyph glyph-name="bullet" unicode="&#x2022;" horiz-adv-x="452" 
d="M226 171q-58 0 -99 41t-41 98q0 58 41 99.5t99 41.5t99 -41.5t41 -99.5t-41 -98.5t-99 -40.5z" />
    <glyph glyph-name="ellipsis" unicode="&#x2026;" horiz-adv-x="787" 
d="M123 -10q-33 0 -56.5 24t-23.5 57t23.5 57t56.5 24q34 0 57.5 -24t23.5 -57t-23.5 -57t-57.5 -24zM393 -10q-33 0 -56.5 24t-23.5 57t23.5 57t56.5 24q34 0 57.5 -24t23.5 -57t-23.5 -57t-57.5 -24zM663 -10q-33 0 -56.5 24t-23.5 57t23.5 57t56.5 24q34 0 57.5 -24
t23.5 -57t-23.5 -57t-57.5 -24z" />
    <glyph glyph-name="perthousand" unicode="&#x2030;" horiz-adv-x="1127" 
d="M33 551q0 46 18 81t54 57t87 22t86.5 -22t53.5 -57t18 -81t-18 -81.5t-53.5 -57.5t-86.5 -22q-70 0 -114.5 43.5t-44.5 117.5zM191 624q-25 0 -40.5 -19.5t-15.5 -53.5q0 -35 15 -54t41 -19t41.5 19t15.5 54q0 34 -15.5 53.5t-41.5 19.5zM130 0l385 702h126l-385 -702
h-126zM423 151q0 37 15 74t53.5 61.5t89.5 24.5t87 -22t54 -57t18 -81q0 -74 -44.5 -117.5t-114.5 -43.5q-69 0 -113.5 43.5t-44.5 117.5zM581 224q-25 0 -40.5 -19.5t-15.5 -53.5q0 -35 15 -54.5t41 -19.5t41 19.5t15 54.5q0 34 -15.5 53.5t-40.5 19.5zM777 151q0 46 18 81
t54 57t87 22t86.5 -22t53.5 -57t18 -81t-18 -81.5t-53.5 -57.5t-86.5 -22q-70 0 -114.5 43.5t-44.5 117.5zM935 224q-25 0 -40.5 -19.5t-15.5 -53.5q0 -35 15 -54.5t41 -19.5t41.5 19.5t15.5 54.5q0 34 -15.5 53.5t-41.5 19.5z" />
    <glyph glyph-name="guilsinglleft" unicode="&#x2039;" horiz-adv-x="303" 
d="M168 270l92 -175h-123l-88 175l88 175h123z" />
    <glyph glyph-name="guilsinglright" unicode="&#x203a;" horiz-adv-x="303" 
d="M166 95h-123l92 175l-92 175h123l88 -175z" />
    <glyph glyph-name="fraction" unicode="&#x2044;" horiz-adv-x="146" 
d="M-175 0l385 702h111l-385 -702h-111z" />
    <glyph glyph-name="uni2070" unicode="&#x2070;" horiz-adv-x="353" 
d="M176 712q72 0 113.5 -48.5t41.5 -135.5t-41.5 -135t-113.5 -48t-113 48t-41 135t41 135.5t113 48.5zM176 620q-26 0 -42 -24t-16 -68q0 -43 16 -67.5t42 -24.5t42.5 24.5t16.5 67.5q0 44 -16 68t-43 24z" />
    <glyph glyph-name="uni2074" unicode="&#x2074;" horiz-adv-x="353" 
d="M185 350v61h-160v72l155 225h104v-220h49v-77h-49v-61h-99zM196 488v123l-82 -123h82z" />
    <glyph glyph-name="Euro" unicode="&#x20ac;" horiz-adv-x="749" 
d="M103 350l1 25h-74v91h89q31 110 114 177.5t189 67.5q111 0 187.5 -59.5t105.5 -162.5h-149q-24 47 -62.5 70t-83.5 23q-39 0 -72.5 -18t-52.5 -45.5t-29 -52.5h191v-91h-210l-1 -25l1 -32h210v-88h-189q22 -52 64 -81.5t96 -29.5q48 0 81.5 22.5t56.5 69.5h149
q-29 -104 -103.5 -162.5t-183.5 -58.5q-107 0 -191.5 65.5t-116.5 174.5h-90v88h74z" />
    <glyph glyph-name="afii61289" unicode="&#x2113;" horiz-adv-x="604" 
d="M270 306l2 -54q52 16 92.5 59t66 102t25.5 114q0 43 -17 66t-47 23q-23 0 -45.5 -20t-41 -68t-27 -112t-8.5 -110zM11 192l32 91q43 -18 81 -28l-2 52q0 73 17 147.5t51 135.5t86.5 98t119.5 37q56 0 96 -23.5t61 -63.5t21 -97q0 -65 -22 -127.5t-61 -114t-91 -87.5
t-108 -51q30 -71 89 -71q51 0 105 38l47 -83q-29 -27 -73 -43.5t-90 -16.5t-92.5 19t-80.5 60t-52 93q-76 12 -134 35z" />
    <glyph glyph-name="trademark" unicode="&#x2122;" horiz-adv-x="874" 
d="M22 618v84h278v-84h-88v-267h-103v267h-87zM350 351v351h133l91 -226l93 226h127v-351h-95l-2 222l-92 -222h-71l-91 223v-223h-93z" />
    <glyph glyph-name="uni2126" unicode="&#x2126;" horiz-adv-x="828" 
d="M414 711q72 0 137 -25.5t114 -71.5t76 -108.5t27 -132.5q0 -75 -31 -141.5t-90 -115.5h148v-116h-322v105q72 52 111.5 114.5t39.5 149.5q0 97 -58.5 155.5t-151.5 58.5t-152 -58.5t-59 -155.5q0 -87 39.5 -150t112.5 -114v-105h-322v116h147q-58 49 -89 115.5t-31 141.5
q0 70 27 132.5t76 108.5t114 71.5t137 25.5z" />
    <glyph glyph-name="partialdiff" unicode="&#x2202;" horiz-adv-x="637" 
d="M318 105q37 0 72 19t53.5 55.5t18.5 78.5q0 41 -18.5 77t-52.5 54.5t-70 18.5q-62 0 -104 -42.5t-42 -110.5q0 -33 14 -68t49.5 -58.5t79.5 -23.5zM320 -10q-59 0 -111.5 20t-90.5 56t-59 86t-21 107q0 53 19 100.5t54 82t82.5 54t100.5 19.5q62 0 111 -29
q-97 133 -272 277h159l27 -23q150 -128 215 -238t65 -240q0 -58 -21 -108.5t-58.5 -87t-89.5 -56.5t-110 -20z" />
    <glyph glyph-name="uni2206" unicode="&#x2206;" horiz-adv-x="740" 
d="M33 122l280 580h115l279 -580v-122h-674v122zM555 122l-185 401l-185 -401h370z" />
    <glyph glyph-name="product" unicode="&#x220f;" horiz-adv-x="709" 
d="M26 579v123h657v-123h-98v-711h-141v711h-179v-711h-141v711h-98z" />
    <glyph glyph-name="summation" unicode="&#x2211;" horiz-adv-x="534" 
d="M501 -9v-123h-461v162l273 261l-273 249v162h461v-123h-324l246 -224v-123l-249 -241h327z" />
    <glyph glyph-name="minus" unicode="&#x2212;" horiz-adv-x="628" 
d="M64 299v116h500v-116h-500z" />
    <glyph glyph-name="uni2215" unicode="&#x2215;" horiz-adv-x="146" 
d="M-175 0l385 702h111l-385 -702h-111z" />
    <glyph glyph-name="radical" unicode="&#x221a;" horiz-adv-x="629" 
d="M37 516h145l133 -354l193 601h130l-262 -763h-135z" />
    <glyph glyph-name="infinity" unicode="&#x221e;" horiz-adv-x="688" 
d="M502 191q-34 0 -72 18.5t-88 73.5q-48 -55 -84.5 -73.5t-69.5 -18.5q-71 0 -118 44.5t-47 111.5q0 68 46.5 112.5t116.5 44.5q34 0 72.5 -18.5t87.5 -72.5q48 54 84.5 72.5t69.5 18.5q71 0 118 -44.5t47 -111.5q0 -68 -46.5 -112.5t-116.5 -44.5zM502 283q27 0 44.5 18.5
t17.5 46.5q0 27 -17.5 45.5t-44.5 18.5q-20 0 -44 -12.5t-58 -49.5q29 -32 52.5 -49.5t49.5 -17.5zM186 283q47 0 102 62q-28 32 -52.5 49.5t-49.5 17.5q-27 0 -44.5 -18.5t-17.5 -46.5q0 -27 17.5 -45.5t44.5 -18.5z" />
    <glyph glyph-name="integral" unicode="&#x222b;" horiz-adv-x="413" 
d="M94 33l72 545q13 99 64.5 145.5t154.5 46.5h21l-13 -119h-15q-35 0 -50.5 -17t-20.5 -56l-72 -545q-13 -96 -63.5 -137t-140.5 -41h-24l12 119h22q26 0 37.5 14.5t15.5 44.5z" />
    <glyph glyph-name="approxequal" unicode="&#x2248;" horiz-adv-x="628" 
d="M421 373q-19 0 -42 5t-54.5 20.5t-37.5 18.5q-42 19 -72 19q-24 0 -38.5 -16.5t-15.5 -47.5h-117q4 89 46.5 139.5t115.5 50.5q19 0 42 -5t54.5 -20t38.5 -18q44 -20 72 -20q23 0 38 16.5t17 46.5h116q-3 -88 -47 -138.5t-116 -50.5zM421 126q-19 0 -42 5t-53.5 20
t-37.5 18q-42 20 -73 20q-24 0 -38.5 -16.5t-15.5 -47.5h-117q4 89 46.5 139.5t115.5 50.5q19 0 42.5 -5t55.5 -20.5t38 -18.5q46 -19 71 -19q23 0 38 16.5t17 46.5h116q-3 -88 -47 -138.5t-116 -50.5z" />
    <glyph glyph-name="notequal" unicode="&#x2260;" horiz-adv-x="628" 
d="M101 66l52 96h-89v116h151l70 131h-221v116h283l52 96h128l-52 -96h89v-116h-151l-71 -131h222v-116h-284l-52 -96h-127z" />
    <glyph glyph-name="lessequal" unicode="&#x2264;" horiz-adv-x="628" 
d="M564 137l-500 211v116l500 210v-123l-354 -145l354 -145v-124zM64 0v116h500v-116h-500z" />
    <glyph glyph-name="greaterequal" unicode="&#x2265;" horiz-adv-x="628" 
d="M64 137v124l354 145l-354 145v123l500 -210v-116zM564 0h-500v116h500v-116z" />
    <glyph glyph-name="lozenge" unicode="&#x25ca;" horiz-adv-x="561" 
d="M33 352l248 348l247 -348l-247 -352zM407 352l-126 182l-127 -182l127 -189z" />
    <glyph glyph-name="uniFB01" unicode="&#xfb01;" horiz-adv-x="640" 
d="M85 0v443h-60v114h60v21q0 96 48.5 144t136.5 48q28 0 51.5 -6t36.5 -16v-116q-25 19 -61 19q-72 0 -72 -80v-14h135v-114h-135v-443h-140zM424 0v557h140v-557h-140zM495 606q-35 0 -60.5 25.5t-25.5 60.5t25.5 60.5t60.5 25.5t60 -25.5t25 -60.5t-25 -60.5t-60 -25.5z
" />
    <glyph glyph-name="uniFB02" unicode="&#xfb02;" horiz-adv-x="641" 
d="M85 0v443h-60v114h60v21q0 96 48.5 144t136.5 48q28 0 51.5 -6t36.5 -16v-116q-25 19 -61 19q-72 0 -72 -80v-14h135v-114h-135v-443h-140zM424 0v763h141v-763h-141z" />
    <glyph glyph-name="glyph377" horiz-adv-x="1692" 
d="M84 0v702h217v-702h-217zM345 497v205h217v-205h-217zM607 0v702h217v-702h-217zM868 497v205h217v-205h-217zM1129 0v702h217v-702h-217zM1391 497v205h217v-205h-217zM1391 248v205h217v-205h-217z" />
    <glyph glyph-name="a.ss01" horiz-adv-x="643" 
d="M289 98q56 0 93 38t44 99h-123q-51 0 -77 -18t-26 -50q0 -31 23.5 -50t65.5 -19zM427 97q-9 -22 -32.5 -47t-64 -42.5t-83.5 -17.5q-56 0 -99.5 21.5t-67.5 58.5t-24 88q0 36 14.5 66.5t44.5 53t77.5 35t110.5 12.5h124q-4 57 -32 88.5t-76 31.5q-41 0 -68 -23.5
t-36 -67.5h-144q9 70 44.5 117.5t88 71.5t119.5 24q54 0 99 -15.5t77.5 -46t50 -76t17.5 -102.5v-327h-140v97z" />
    <glyph glyph-name="agrave.ss01" horiz-adv-x="643" 
d="M289 98q56 0 93 38t44 99h-123q-51 0 -77 -18t-26 -50q0 -31 23.5 -50t65.5 -19zM427 97q-9 -22 -32.5 -47t-64 -42.5t-83.5 -17.5q-56 0 -99.5 21.5t-67.5 58.5t-24 88q0 36 14.5 66.5t44.5 53t77.5 35t110.5 12.5h124q-4 57 -32 88.5t-76 31.5q-41 0 -68 -23.5
t-36 -67.5h-144q9 70 44.5 117.5t88 71.5t119.5 24q54 0 99 -15.5t77.5 -46t50 -76t17.5 -102.5v-327h-140v97zM388 600h-121l-143 173h171z" />
    <glyph glyph-name="aacute.ss01" horiz-adv-x="643" 
d="M289 98q56 0 93 38t44 99h-123q-51 0 -77 -18t-26 -50q0 -31 23.5 -50t65.5 -19zM427 97q-9 -22 -32.5 -47t-64 -42.5t-83.5 -17.5q-56 0 -99.5 21.5t-67.5 58.5t-24 88q0 36 14.5 66.5t44.5 53t77.5 35t110.5 12.5h124q-4 57 -32 88.5t-76 31.5q-41 0 -68 -23.5
t-36 -67.5h-144q9 70 44.5 117.5t88 71.5t119.5 24q54 0 99 -15.5t77.5 -46t50 -76t17.5 -102.5v-327h-140v97zM242 600l94 173h170l-143 -173h-121z" />
    <glyph glyph-name="acircumflex.ss01" horiz-adv-x="643" 
d="M289 98q56 0 93 38t44 99h-123q-51 0 -77 -18t-26 -50q0 -31 23.5 -50t65.5 -19zM427 97q-9 -22 -32.5 -47t-64 -42.5t-83.5 -17.5q-56 0 -99.5 21.5t-67.5 58.5t-24 88q0 36 14.5 66.5t44.5 53t77.5 35t110.5 12.5h124q-4 57 -32 88.5t-76 31.5q-41 0 -68 -23.5
t-36 -67.5h-144q9 70 44.5 117.5t88 71.5t119.5 24q54 0 99 -15.5t77.5 -46t50 -76t17.5 -102.5v-327h-140v97zM385 600l-67 86l-67 -86h-121l102 173h172l102 -173h-121z" />
    <glyph glyph-name="atilde.ss01" horiz-adv-x="643" 
d="M289 98q56 0 93 38t44 99h-123q-51 0 -77 -18t-26 -50q0 -31 23.5 -50t65.5 -19zM427 97q-9 -22 -32.5 -47t-64 -42.5t-83.5 -17.5q-56 0 -99.5 21.5t-67.5 58.5t-24 88q0 36 14.5 66.5t44.5 53t77.5 35t110.5 12.5h124q-4 57 -32 88.5t-76 31.5q-41 0 -68 -23.5
t-36 -67.5h-144q9 70 44.5 117.5t88 71.5t119.5 24q54 0 99 -15.5t77.5 -46t50 -76t17.5 -102.5v-327h-140v97zM387 716q15 0 25.5 13t11.5 38h89q-1 -70 -34.5 -112.5t-85.5 -42.5q-17 0 -34.5 5t-47.5 22.5t-42 20.5t-20 3q-15 0 -25 -13t-12 -38h-89q2 71 34.5 113
t86.5 42q11 0 24 -2.5t24 -7.5t42.5 -23t52.5 -18z" />
    <glyph glyph-name="adieresis.ss01" horiz-adv-x="643" 
d="M289 98q56 0 93 38t44 99h-123q-51 0 -77 -18t-26 -50q0 -31 23.5 -50t65.5 -19zM427 97q-9 -22 -32.5 -47t-64 -42.5t-83.5 -17.5q-56 0 -99.5 21.5t-67.5 58.5t-24 88q0 36 14.5 66.5t44.5 53t77.5 35t110.5 12.5h124q-4 57 -32 88.5t-76 31.5q-41 0 -68 -23.5
t-36 -67.5h-144q9 70 44.5 117.5t88 71.5t119.5 24q54 0 99 -15.5t77.5 -46t50 -76t17.5 -102.5v-327h-140v97zM212 606q-35 0 -60 25.5t-25 60.5t25 60.5t60 25.5t60.5 -25.5t25.5 -60.5t-25.5 -60.5t-60.5 -25.5zM423 606q-35 0 -60 25t-25 61t25 61t60 25t60 -25t25 -61
t-25 -61t-60 -25z" />
    <glyph glyph-name="aring.ss01" horiz-adv-x="643" 
d="M289 98q56 0 93 38t44 99h-123q-51 0 -77 -18t-26 -50q0 -31 23.5 -50t65.5 -19zM427 97q-9 -22 -32.5 -47t-64 -42.5t-83.5 -17.5q-56 0 -99.5 21.5t-67.5 58.5t-24 88q0 36 14.5 66.5t44.5 53t77.5 35t110.5 12.5h124q-4 57 -32 88.5t-76 31.5q-41 0 -68 -23.5
t-36 -67.5h-144q9 70 44.5 117.5t88 71.5t119.5 24q54 0 99 -15.5t77.5 -46t50 -76t17.5 -102.5v-327h-140v97zM205 698q0 23 11 49t39.5 44t64.5 18q50 0 82 -31t32 -80q0 -23 -11 -49t-39 -44t-64 -18q-23 0 -50 10.5t-46 38t-19 62.5zM359 699q0 17 -11 29t-28 12
t-28.5 -12t-11.5 -29q0 -18 11 -30t29 -12q17 0 28 12t11 30z" />
    <glyph glyph-name="amacron.ss01" horiz-adv-x="643" 
d="M289 98q56 0 93 38t44 99h-123q-51 0 -77 -18t-26 -50q0 -31 23.5 -50t65.5 -19zM427 97q-9 -22 -32.5 -47t-64 -42.5t-83.5 -17.5q-56 0 -99.5 21.5t-67.5 58.5t-24 88q0 36 14.5 66.5t44.5 53t77.5 35t110.5 12.5h124q-4 57 -32 88.5t-76 31.5q-41 0 -68 -23.5
t-36 -67.5h-144q9 70 44.5 117.5t88 71.5t119.5 24q54 0 99 -15.5t77.5 -46t50 -76t17.5 -102.5v-327h-140v97zM156 631v106h331v-106h-331z" />
    <glyph glyph-name="abreve.ss01" horiz-adv-x="643" 
d="M289 98q56 0 93 38t44 99h-123q-51 0 -77 -18t-26 -50q0 -31 23.5 -50t65.5 -19zM427 97q-9 -22 -32.5 -47t-64 -42.5t-83.5 -17.5q-56 0 -99.5 21.5t-67.5 58.5t-24 88q0 36 14.5 66.5t44.5 53t77.5 35t110.5 12.5h124q-4 57 -32 88.5t-76 31.5q-41 0 -68 -23.5
t-36 -67.5h-144q9 70 44.5 117.5t88 71.5t119.5 24q54 0 99 -15.5t77.5 -46t50 -76t17.5 -102.5v-327h-140v97zM472 745q0 -70 -42.5 -110t-113.5 -40t-113.5 40t-42.5 110v25h83q0 -36 17 -54.5t56 -18.5t56 18.5t17 54.5h83v-25z" />
    <glyph glyph-name="aogonek.ss01" horiz-adv-x="643" 
d="M427 97q-9 -22 -32.5 -47t-64 -42.5t-83.5 -17.5q-56 0 -99.5 21.5t-67.5 58.5t-24 88q0 36 14.5 66.5t44.5 53t77.5 35t110.5 12.5h124q-4 57 -32 88.5t-76 31.5q-41 0 -68 -23.5t-36 -67.5h-144q9 70 44.5 117.5t88 71.5t119.5 24q54 0 99 -15.5t77.5 -46t50 -76
t17.5 -102.5v-327h-28l-32 -20q-65 -42 -65 -81q0 -16 11 -25.5t32 -9.5q28 0 53 11v-86q-30 -15 -82 -15q-61 0 -94.5 25t-33.5 71q0 65 83 127l16 12v88zM289 98q56 0 93 38t44 99h-123q-51 0 -77 -18t-26 -50q0 -31 23.5 -50t65.5 -19z" />
    <glyph glyph-name="glyph388" horiz-adv-x="216" 
d="M57 756h126l-78 -229h-82z" />
    <glyph glyph-name="glyph389" horiz-adv-x="0" 
d="M50 605h-121l69 175h82z" />
    </font>
</defs>
</svg>
